<?xml version="1.0" encoding="UTF-8" standalone="no"?>
<svg xmlns:dc="http://purl.org/dc/elements/1.1/" xmlns:cc="http://creativecommons.org/ns#" xmlns:rdf="http://www.w3.org/1999/02/22-rdf-syntax-ns#" xmlns:svg="http://www.w3.org/2000/svg" xmlns="http://www.w3.org/2000/svg" viewBox="0 0 485.33334 102.66667" height="102.66667" width="485.33334" xml:space="preserve" id="svg2" version="1.1">
  <metadata id="metadata8"/>
  <defs id="defs6">
    <clipPath id="clipPath148" clipPathUnits="userSpaceOnUse">
      <path id="path146" d="M 353.84,211.176 C 224.789,259.039 207.102,396.551 207.094,546.41 c 10.207,1.035 20.703,2.203 31.226,3.426 55.782,6.476 94.465,24.855 115.52,37.84 21.055,-12.985 59.738,-31.364 115.519,-37.84 10.528,-1.223 21.024,-2.391 31.231,-3.426 C 500.578,396.551 482.891,259.039 353.84,211.176 Z"/>
    </clipPath>
    <clipPath id="clipPath158" clipPathUnits="userSpaceOnUse">
      <path id="path156" d="M 353.84,211.176 C 224.789,259.039 207.102,396.551 207.094,546.41 c 10.207,1.035 20.703,2.203 31.226,3.426 55.782,6.476 94.465,24.855 115.52,37.84 21.055,-12.985 59.738,-31.364 115.519,-37.84 10.528,-1.223 21.024,-2.391 31.231,-3.426 C 500.578,396.551 482.891,259.039 353.84,211.176 Z"/>
    </clipPath>
    <clipPath id="clipPath164" clipPathUnits="userSpaceOnUse">
      <path style="clip-rule:evenodd" id="path162" d="M 481.348,597.301 505.797,579.535 353.828,293.68 v 0 z"/>
    </clipPath>
    <clipPath id="clipPath174" clipPathUnits="userSpaceOnUse">
      <path id="path172" d="M 353.84,211.176 C 224.789,259.039 207.102,396.551 207.094,546.41 c 10.207,1.035 20.703,2.203 31.226,3.426 55.782,6.476 94.465,24.855 115.52,37.84 21.055,-12.985 59.738,-31.364 115.519,-37.84 10.528,-1.223 21.024,-2.391 31.231,-3.426 C 500.578,396.551 482.891,259.039 353.84,211.176 Z"/>
    </clipPath>
    <clipPath id="clipPath284" clipPathUnits="userSpaceOnUse">
      <path id="path282" d="M 353.84,211.176 C 224.789,259.039 207.102,396.551 207.094,546.41 c 10.207,1.035 20.703,2.203 31.226,3.426 55.782,6.476 94.465,24.855 115.52,37.84 21.055,-12.985 59.738,-31.364 115.519,-37.84 10.528,-1.223 21.024,-2.391 31.231,-3.426 C 500.578,396.551 482.891,259.039 353.84,211.176 Z"/>
    </clipPath>
    <clipPath id="clipPath290" clipPathUnits="userSpaceOnUse">
      <path style="clip-rule:evenodd" id="path288" d="M 226.277,597.301 201.828,579.535 353.797,293.68 v 0 z"/>
    </clipPath>
    <clipPath id="clipPath300" clipPathUnits="userSpaceOnUse">
      <path id="path298" d="M 353.84,211.176 C 224.789,259.039 207.102,396.551 207.094,546.41 c 10.207,1.035 20.703,2.203 31.226,3.426 55.782,6.476 94.465,24.855 115.52,37.84 21.055,-12.985 59.738,-31.364 115.519,-37.84 10.528,-1.223 21.024,-2.391 31.231,-3.426 C 500.578,396.551 482.891,259.039 353.84,211.176 Z"/>
    </clipPath>
  </defs>
  <g transform="matrix(1.3333333,0,0,-1.3333333,0,102.66667)" id="g10">
    <g transform="scale(0.1)" id="g12">
      <path id="path14" style="fill:#1f4fa2;fill-opacity:1;fill-rule:evenodd;stroke:none" d="m 783.758,308.82 v 201.016 h 104.879 c 14.261,0 26.218,-3.715 35.863,-11.152 10.848,-8.641 16.273,-20.895 16.273,-36.766 0,-25.918 -12.152,-42.191 -36.468,-48.824 v -0.602 c 28.933,-4.621 43.398,-22.5 43.398,-53.648 0,-15.067 -6.027,-27.223 -18.082,-36.461 C 917.57,313.34 901.898,308.82 882.605,308.82 Z m 43.094,171.477 v -53.039 h 40.086 c 8.839,0 16.175,2.812 22,8.437 5.828,5.828 8.738,12.86 8.738,21.102 0,8.031 -3.317,14.164 -9.942,18.379 -5.425,3.418 -12.16,5.121 -20.191,5.121 z m 0,-82.57 v -59.375 h 43.097 c 11.254,0 19.992,3.011 26.223,9.043 5.625,5.425 8.437,12.855 8.437,22.3 0,9.043 -3.718,16.278 -11.152,21.7 -5.824,4.218 -11.953,6.332 -18.383,6.332 h -48.222"/>
      <path id="path16" style="fill:#1f4fa2;fill-opacity:1;fill-rule:evenodd;stroke:none" d="m 977.84,308.82 v 149.782 h 42.19 V 308.82 Z m -0.602,175.098 v 27.727 h 43.092 v -27.727 h -43.092"/>
      <path id="path18" style="fill:#1f4fa2;fill-opacity:1;fill-rule:nonzero;stroke:none" d="m 1059.81,308.82 h 42.1914 V 509.836 H 1059.81 Z"/>
      <path id="path20" style="fill:#1f4fa2;fill-opacity:1;fill-rule:evenodd;stroke:none" d="m 1141.78,308.82 v 201.016 h 42.19 V 308.82 Z m 44.9,83.782 48.83,66 h 47.31 l -53.94,-66 62.68,-83.782 h -45.2 l -59.68,83.782"/>
      <path id="path22" style="fill:#1f4fa2;fill-opacity:1;fill-rule:evenodd;stroke:none" d="m 1437.43,342.574 -3.92,-31.648 c -16.88,-3.813 -34.46,-5.719 -52.74,-5.719 -25.92,0 -46.22,7.227 -60.88,21.691 -14.67,14.465 -22,33.352 -22,56.661 0,23.711 6.43,42.597 19.29,56.66 13.66,14.668 33.15,22 58.46,22 21.71,0 38.98,-5.422 51.84,-16.278 14.07,-12.05 21.1,-29.632 21.1,-52.738 v -11.754 h -108.5 v -4.824 c 0,-13.66 4.63,-24.406 13.87,-32.246 8.63,-7.633 19.99,-11.453 34.05,-11.453 12.86,0 29.34,3.215 49.43,9.648 z m -97.35,59.071 h 68.41 c 0,23.304 -10.95,34.957 -32.85,34.957 -10.44,0 -18.78,-3.317 -25.01,-9.946 -6.23,-6.429 -9.74,-14.765 -10.55,-25.011"/>
      <path id="path24" style="fill:#1f4fa2;fill-opacity:1;fill-rule:nonzero;stroke:none" d="m 1516.99,458.602 v -24.711 l 0.6,-0.606 c 9.64,19.289 28.33,28.934 56.05,28.934 39.39,0 59.08,-16.176 59.08,-48.524 V 308.82 h -42.2 v 95.235 c 0,7.429 -3.01,13.359 -9.04,17.781 -5.83,4.418 -13.06,6.625 -21.69,6.625 -14.68,0 -25.32,-4.516 -31.95,-13.559 -7.24,-9.644 -10.85,-25.718 -10.85,-48.222 v -57.86 h -42.19 v 149.782 h 42.19"/>
      <path id="path26" style="fill:#1f4fa2;fill-opacity:1;fill-rule:nonzero;stroke:none" d="m 1719.51,458.602 h 37.97 v -29.536 h -37.97 v -66.605 c 0,-16.875 6.23,-25.313 18.69,-25.313 7.63,0 15.07,0.899 22.3,2.711 l -4.82,-30.14 c -10.45,-3.008 -21.7,-4.512 -33.76,-4.512 -15.07,0 -26.12,2.813 -33.15,8.43 -7.63,6.031 -11.45,16.175 -11.45,30.441 v 84.988 h -21.1 v 29.536 h 21.1 v 25.921 l 42.19,9.946 v -35.867"/>
      <path id="path28" style="fill:#1f4fa2;fill-opacity:1;fill-rule:evenodd;stroke:none" d="m 1981.4,541.785 v 27.727 h 34.96 v -27.727 z m -53.95,0 v 27.727 h 34.96 v -27.727 z m -49.42,-31.949 h 45.51 v -122.66 c 0,-33.356 16.07,-50.028 48.22,-50.028 32.15,0 48.22,16.672 48.22,50.028 v 122.66 h 45.51 V 373.613 c 0,-22.703 -8.64,-39.984 -25.92,-51.836 -16.28,-11.05 -38.88,-16.57 -67.81,-16.57 -28.93,0 -51.54,5.52 -67.81,16.57 -17.28,11.852 -25.92,29.133 -25.92,51.836 v 136.223"/>
      <path id="path30" style="fill:#1f4fa2;fill-opacity:1;fill-rule:nonzero;stroke:none" d="m 2145.35,458.602 v -24.711 l 0.61,-0.606 c 9.64,19.289 28.32,28.934 56.05,28.934 39.38,0 59.07,-16.176 59.07,-48.524 V 308.82 h -42.19 v 95.235 c 0,7.429 -3.02,13.359 -9.05,17.781 -5.82,4.418 -13.05,6.625 -21.69,6.625 -14.67,0 -25.32,-4.516 -31.95,-13.559 -7.23,-9.644 -10.85,-25.718 -10.85,-48.222 v -57.86 h -42.19 v 149.782 h 42.19"/>
      <path id="path32" style="fill:#1f4fa2;fill-opacity:1;fill-rule:evenodd;stroke:none" d="m 2299.05,308.82 v 149.782 h 42.2 V 308.82 Z m -0.6,175.098 v 27.727 h 43.09 v -27.727 h -43.09"/>
      <path id="path34" style="fill:#1f4fa2;fill-opacity:1;fill-rule:nonzero;stroke:none" d="m 2420.5,308.82 -59.66,149.782 h 43.69 l 38.88,-111.508 h 0.6 l 38.28,111.508 h 42.79 L 2465.41,308.82 h -44.91"/>
      <path id="path36" style="fill:#1f4fa2;fill-opacity:1;fill-rule:evenodd;stroke:none" d="m 2674.56,342.574 -3.92,-31.648 c -16.87,-3.813 -34.45,-5.719 -52.74,-5.719 -25.92,0 -46.21,7.227 -60.87,21.691 -14.67,14.465 -22,33.352 -22,56.661 0,23.711 6.43,42.597 19.28,56.66 13.67,14.668 33.15,22 58.47,22 21.7,0 38.98,-5.422 51.84,-16.278 14.06,-12.05 21.09,-29.632 21.09,-52.738 v -11.754 h -108.49 v -4.824 c 0,-13.66 4.62,-24.406 13.86,-32.246 8.64,-7.633 19.99,-11.453 34.06,-11.453 12.86,0 29.33,3.215 49.42,9.648 z m -97.34,59.071 h 68.41 c 0,23.304 -10.95,34.957 -32.85,34.957 -10.45,0 -18.78,-3.317 -25.01,-9.946 -6.23,-6.429 -9.75,-14.765 -10.55,-25.011"/>
      <path id="path38" style="fill:#1f4fa2;fill-opacity:1;fill-rule:nonzero;stroke:none" d="m 2752.02,458.602 v -19.286 l 0.6,-0.601 c 9.04,15.664 22,23.504 38.88,23.504 4.01,0 8.33,-0.5 12.95,-1.504 l 3.62,-34.66 c -6.83,1.605 -12.56,2.406 -17.18,2.406 -24.51,0 -36.77,-14.563 -36.77,-43.695 V 308.82 h -42.19 v 149.782 h 40.09"/>
      <path id="path40" style="fill:#1f4fa2;fill-opacity:1;fill-rule:nonzero;stroke:none" d="m 2827.36,311.527 -4.82,32.551 c 18.48,-7.433 32.94,-11.152 43.39,-11.152 5.62,0 10.55,1.109 14.77,3.316 5.22,2.414 7.84,5.926 7.84,10.547 0,6.031 -5.33,13.262 -15.98,21.703 -18.68,15.27 -28.43,23.305 -29.23,24.11 -10.65,10.445 -15.97,21.093 -15.97,31.941 0,8.645 2.91,16.176 8.74,22.609 9.44,10.043 25.21,15.067 47.31,15.067 12.26,0 27.12,-1.606 44.6,-4.821 l 3.32,-30.742 c -12.66,5.223 -25.62,7.836 -38.88,7.836 -13.06,0 -19.59,-4.121 -19.59,-12.359 0,-5.02 5.33,-11.75 15.98,-20.192 16.27,-13.058 26.02,-21.296 29.23,-24.711 10.64,-11.253 15.97,-22.601 15.97,-34.054 0,-12.864 -6.53,-22.703 -19.59,-29.539 -10.64,-5.617 -23.5,-8.43 -38.57,-8.43 -14.07,0 -30.24,2.109 -48.52,6.32"/>
      <path id="path42" style="fill:#1f4fa2;fill-opacity:1;fill-rule:evenodd;stroke:none" d="m 2965.39,308.82 v 149.782 h 42.19 V 308.82 Z m -0.6,175.098 v 27.727 h 43.09 v -27.727 h -43.09"/>
      <path id="path44" style="fill:#1f4fa2;fill-opacity:1;fill-rule:nonzero;stroke:none" d="m 3096.18,458.602 h 37.97 v -29.536 h -37.97 v -66.605 c 0,-16.875 6.23,-25.313 18.69,-25.313 7.63,0 15.06,0.899 22.3,2.711 l -4.83,-30.14 c -10.44,-3.008 -21.7,-4.512 -33.75,-4.512 -15.07,0 -26.12,2.813 -33.15,8.43 -7.64,6.031 -11.45,16.175 -11.45,30.441 v 84.988 h -21.1 v 29.536 h 21.1 v 25.921 l 42.19,9.946 v -35.867"/>
      <path id="path46" style="fill:#1f4fa2;fill-opacity:1;fill-rule:evenodd;stroke:none" d="m 3289.66,342.574 -3.92,-31.648 c -16.87,-3.813 -34.45,-5.719 -52.74,-5.719 -25.92,0 -46.21,7.227 -60.88,21.691 -14.67,14.465 -22,33.352 -22,56.661 0,23.711 6.43,42.597 19.29,56.66 13.66,14.668 33.15,22 58.47,22 21.7,0 38.98,-5.422 51.83,-16.278 14.07,-12.05 21.1,-29.632 21.1,-52.738 v -11.754 h -108.49 v -4.824 c 0,-13.66 4.62,-24.406 13.86,-32.246 8.64,-7.633 19.99,-11.453 34.05,-11.453 12.86,0 29.34,3.215 49.43,9.648 z m -97.34,59.071 h 68.41 c 0,23.304 -10.95,34.957 -32.85,34.957 -10.45,0 -18.79,-3.317 -25.01,-9.946 -6.24,-6.429 -9.75,-14.765 -10.55,-25.011"/>
      <path id="path48" style="fill:#1f4fa2;fill-opacity:1;fill-rule:nonzero;stroke:none" d="m 3325.21,311.527 -4.81,32.551 c 18.48,-7.433 32.95,-11.152 43.39,-11.152 5.63,0 10.55,1.109 14.77,3.316 5.23,2.414 7.84,5.926 7.84,10.547 0,6.031 -5.33,13.262 -15.97,21.703 -18.69,15.27 -28.43,23.305 -29.24,24.11 -10.65,10.445 -15.98,21.093 -15.98,31.941 0,8.645 2.92,16.176 8.75,22.609 9.44,10.043 25.21,15.067 47.31,15.067 12.26,0 27.13,-1.606 44.61,-4.821 l 3.31,-30.742 c -12.65,5.223 -25.61,7.836 -38.87,7.836 -13.07,0 -19.59,-4.121 -19.59,-12.359 0,-5.02 5.32,-11.75 15.97,-20.192 16.28,-13.058 26.02,-21.296 29.24,-24.711 10.64,-11.253 15.97,-22.601 15.97,-34.054 0,-12.864 -6.53,-22.703 -19.59,-29.539 -10.65,-5.617 -23.51,-8.43 -38.58,-8.43 -14.07,0 -30.24,2.109 -48.53,6.32"/>
      <path id="path50" style="fill:#1f4fa2;fill-opacity:1;fill-rule:evenodd;stroke:none" d="m 3463.25,308.82 v 149.782 h 42.19 V 308.82 Z m -0.6,175.098 v 27.727 h 43.09 v -27.727 h -43.09"/>
      <path id="path52" style="fill:#ffffff;fill-opacity:1;fill-rule:nonzero;stroke:none" d="m 12.1562,412.742 c 0,188.731 152.9848,341.719 341.7068,341.719 188.723,0 341.711,-152.988 341.711,-341.719 0,-188.726 -152.988,-341.7147 -341.711,-341.7147 -188.722,0 -341.7068,152.9887 -341.7068,341.7147"/>
      <g transform="scale(0.999991,1.00001)" id="g54">
        <path id="path56" style="fill:none;stroke:#ed1c24;stroke-width:11.76350021;stroke-linecap:butt;stroke-linejoin:miter;stroke-miterlimit:3.8636899;stroke-dasharray:none;stroke-opacity:1" d="m 12.1564,412.738 c 0,188.729 152.9856,341.716 341.7106,341.716 188.724,0 341.714,-152.987 341.714,-341.716 0,-188.724 -152.99,-341.7113 -341.714,-341.7113 -188.725,0 -341.7106,152.9873 -341.7106,341.7113 z"/>
      </g>
      <path id="path58" style="fill:#1f4fa2;fill-opacity:1;fill-rule:evenodd;stroke:none" d="m 105.043,296.242 -9.3047,-4.949 5.5117,-10.363 c 0.984,-1.852 2.121,-3.164 3.418,-3.946 1.324,-0.789 2.875,-0.711 4.652,0.231 1.965,1.047 2.856,2.5 2.676,4.363 -0.262,1.547 -0.937,3.344 -2.019,5.387 z M 88.7539,287.582 77.5,281.598 83.0117,271.234 c 0.9844,-1.851 2,-3.16 3.043,-3.929 1.9101,-1.383 4.1641,-1.383 6.7617,-0.004 2.1914,1.168 3.2188,2.875 3.0742,5.125 -0.0781,1.258 -0.5976,2.804 -1.5508,4.648 z m 31.3911,-12.91 c -1.102,-2.25 -2.907,-4.039 -5.407,-5.371 -2.574,-1.371 -4.992,-1.821 -7.246,-1.356 -1.265,0.258 -2.633,0.903 -4.109,1.926 0.363,-2.57 -0.016,-4.851 -1.133,-6.844 -1.113,-2.011 -2.8789,-3.66 -5.3008,-4.949 -2.5039,-1.328 -5.0781,-1.89 -7.7344,-1.687 -1.7421,0.101 -3.3828,0.515 -4.9179,1.242 -1.7539,0.805 -3.3125,2.031 -4.6758,3.679 -1.3594,1.633 -2.6094,3.524 -3.7539,5.68 l -10.168,19.125 42.1988,22.438 10.899,-20.496 c 2.672,-5.215 3.121,-9.676 1.348,-13.387"/>
      <path id="path60" style="fill:#1f4fa2;fill-opacity:1;fill-rule:evenodd;stroke:none" d="m 130.086,254.559 -5.375,7.675 6.984,4.891 5.375,-7.676 z m -8.828,5.257 5.375,-7.675 -28.9533,-20.27 -5.375,7.676 28.9533,20.269"/>
      <path id="path62" style="fill:#1f4fa2;fill-opacity:1;fill-rule:nonzero;stroke:none" d="m 111.18,214.375 -5.817,7.18 37.141,30.078 5.816,-7.18 -37.14,-30.078"/>
      <path id="path64" style="fill:#1f4fa2;fill-opacity:1;fill-rule:nonzero;stroke:none" d="m 154.082,237.051 6.305,-6.531 -18.52,-17.883 17.559,0.957 7.953,-8.235 -18.309,-0.507 -6.66,-24.282 -7.75,8.024 4.992,16.586 -5.527,-0.02 -8,-7.726 -6.305,6.531 34.262,33.086"/>
      <path id="path66" style="fill:#1f4fa2;fill-opacity:1;fill-rule:evenodd;stroke:none" d="m 175.812,188.523 c -1.738,-0.367 -3.421,-1.375 -5.039,-3.023 l 11.469,-8.645 c 1.352,2.043 1.867,3.969 1.551,5.778 -0.285,1.808 -1.215,3.308 -2.785,4.492 -1.707,1.289 -3.442,1.754 -5.196,1.398 z m 15.133,-1.414 c 1.215,-2.297 1.723,-4.859 1.52,-7.683 -0.16,-2.508 -0.906,-4.988 -2.242,-7.446 -0.789,-1.437 -2.114,-3.359 -3.985,-5.769 l -19.316,14.559 c -2.031,-2.911 -2.637,-5.563 -1.82,-7.965 0.484,-1.477 1.445,-2.754 2.878,-3.832 1.516,-1.145 3.075,-1.645 4.676,-1.496 0.871,0.074 1.817,0.378 2.836,0.906 l 7.535,-5.68 c -1.449,-1.531 -3.605,-2.574 -6.457,-3.129 -4.488,-0.922 -8.902,0.254 -13.254,3.531 -3.593,2.707 -5.886,6.25 -6.89,10.633 -1,4.383 0.465,9.18 4.39,14.395 3.684,4.883 7.739,7.699 12.172,8.445 4.45,0.734 8.653,-0.39 12.606,-3.367 2.347,-1.77 4.133,-3.805 5.351,-6.102"/>
      <path id="path68" style="fill:#1f4fa2;fill-opacity:1;fill-rule:nonzero;stroke:none" d="m 229.75,162.027 c 1.121,-2.797 0.605,-6.132 -1.543,-10.007 l -11.535,-20.813 -8.281,4.59 10.421,18.801 c 0.899,1.625 1.376,2.996 1.422,4.105 0.086,2.027 -0.988,3.66 -3.218,4.899 -2.743,1.519 -5.266,1.398 -7.575,-0.364 -1.211,-0.933 -2.347,-2.355 -3.406,-4.265 l -9.273,-16.731 -8.055,4.465 17.105,30.852 7.797,-4.321 -2.5,-4.511 c 1.922,1.011 3.539,1.613 4.852,1.796 2.355,0.329 4.809,-0.218 7.363,-1.632 3.196,-1.77 5.336,-4.059 6.426,-6.864"/>
      <path id="path70" style="fill:#1f4fa2;fill-opacity:1;fill-rule:nonzero;stroke:none" d="m 237.824,153.09 2.465,6.105 4.57,-1.847 3.692,9.14 8.476,-3.426 -3.691,-9.14 5.32,-2.149 -2.465,-6.105 -5.32,2.152 -6.996,-17.316 c -0.543,-1.344 -0.715,-2.254 -0.512,-2.734 0.211,-0.458 1.188,-1.04 2.934,-1.743 0.262,-0.105 0.531,-0.215 0.812,-0.328 0.309,-0.101 0.606,-0.199 0.895,-0.293 l -2.586,-6.402 -4.121,1.488 c -4.106,1.496 -6.586,3.317 -7.445,5.457 -0.567,1.371 -0.438,3.078 0.39,5.125 l 8.149,20.172 -4.567,1.844"/>
      <path id="path72" style="fill:#1f4fa2;fill-opacity:1;fill-rule:evenodd;stroke:none" d="m 288.516,155.273 10.023,-1.589 -4.594,-29.012 c -0.515,-3.246 -0.504,-5.676 0.028,-7.293 0.773,-2.84 3.168,-4.574 7.183,-5.211 3.992,-0.629 6.797,0.281 8.41,2.738 1.008,1.375 1.766,3.684 2.282,6.93 l 4.593,29.016 10.024,-1.59 -4.594,-29.016 c -0.797,-5.016 -2.195,-8.801 -4.195,-11.351 -3.715,-4.665 -9.66,-6.348 -17.84,-5.051 -8.176,1.293 -13.32,4.734 -15.434,10.324 -1.117,3.043 -1.277,7.074 -0.48,12.09 z m 23.097,8.622 8.36,-1.325 -1.203,-7.59 -8.36,1.321 z m -12.808,2.027 8.355,-1.324 -1.199,-7.59 -8.359,1.324 1.203,7.59"/>
      <path id="path74" style="fill:#1f4fa2;fill-opacity:1;fill-rule:nonzero;stroke:none" d="m 364.273,133.285 c 2.301,-1.945 3.415,-5.129 3.336,-9.562 l -0.414,-23.7933 -9.468,0.1643 0.378,21.492 c 0.032,1.859 -0.195,3.289 -0.671,4.293 -0.879,1.832 -2.59,2.769 -5.141,2.816 -3.133,0.055 -5.309,-1.238 -6.52,-3.875 -0.632,-1.394 -0.964,-3.183 -1.003,-5.367 l -0.332,-19.129 -9.208,0.164 0.614,35.27 8.918,-0.153 -0.09,-5.156 c 1.219,1.793 2.363,3.082 3.437,3.863 1.93,1.395 4.348,2.067 7.27,2.012 3.652,-0.062 6.617,-1.078 8.894,-3.039"/>
      <path id="path76" style="fill:#1f4fa2;fill-opacity:1;fill-rule:evenodd;stroke:none" d="m 387.715,142.09 -9.301,-1.145 -1.039,8.465 9.301,1.145 z m -8.785,-5.328 9.3,1.144 4.305,-35.082 -9.301,-1.14 -4.304,35.078"/>
      <path id="path78" style="fill:#1f4fa2;fill-opacity:1;fill-rule:nonzero;stroke:none" d="m 420.047,143.359 9.707,2.063 -5.117,-37.223 -9.547,-2.027 -19.75,31.933 10.152,2.161 12.617,-23.973 1.938,27.066"/>
      <path id="path80" style="fill:#1f4fa2;fill-opacity:1;fill-rule:evenodd;stroke:none" d="m 448.898,142.957 c -0.609,-1.668 -0.644,-3.629 -0.105,-5.875 l 13.41,5.148 c -1.015,2.227 -2.375,3.684 -4.074,4.375 -1.691,0.715 -3.453,0.723 -5.289,0.02 -1.996,-0.77 -3.313,-1.992 -3.942,-3.668 z m 9.219,12.086 c 2.598,-0.188 5.035,-1.113 7.321,-2.785 2.042,-1.461 3.753,-3.41 5.128,-5.844 0.801,-1.43 1.727,-3.574 2.782,-6.434 l -22.582,-8.671 c 1.39,-3.262 3.32,-5.184 5.789,-5.766 1.507,-0.367 3.101,-0.234 4.777,0.41 1.773,0.684 3.023,1.738 3.746,3.176 0.399,0.777 0.641,1.738 0.734,2.887 l 8.809,3.379 c 0.527,-2.043 0.274,-4.422 -0.769,-7.137 -1.594,-4.293 -4.934,-7.414 -10.02,-9.367 -4.195,-1.61 -8.418,-1.68 -12.664,-0.207 -4.246,1.472 -7.539,5.254 -9.879,11.351 -2.191,5.711 -2.43,10.641 -0.715,14.797 1.735,4.164 4.914,7.133 9.535,8.906 2.746,1.055 5.414,1.489 8.008,1.305"/>
      <path id="path82" style="fill:#1f4fa2;fill-opacity:1;fill-rule:nonzero;stroke:none" d="m 490.422,171.574 c 0.117,0.059 0.363,0.168 0.742,0.328 l 4.152,-8.511 c -0.554,-0.196 -1.039,-0.387 -1.457,-0.563 -0.418,-0.183 -0.754,-0.332 -1.004,-0.457 -3.343,-1.629 -5.058,-3.812 -5.14,-6.547 -0.047,-1.535 0.555,-3.578 1.797,-6.121 l 7.402,-15.183 -8.363,-4.082 -15.492,31.765 7.925,3.867 2.7,-5.535 c 0.25,2.742 0.66,4.735 1.234,5.977 0.918,2.058 2.625,3.695 5.109,4.906 0.157,0.078 0.289,0.129 0.395,0.156"/>
      <path id="path84" style="fill:#1f4fa2;fill-opacity:1;fill-rule:nonzero;stroke:none" d="m 517.074,159.004 c 1.059,-1.27 2.047,-2.02 2.965,-2.246 1.633,-0.41 3.746,0.226 6.34,1.91 1.519,0.988 2.578,1.996 3.172,3.027 0.613,1.043 0.625,2.016 0.035,2.926 -0.563,0.867 -1.356,1.293 -2.375,1.277 -1.02,-0.019 -4.219,-0.988 -9.594,-2.906 -3.898,-1.344 -6.941,-1.84 -9.129,-1.48 -2.179,0.336 -4.023,1.664 -5.527,3.984 -1.777,2.738 -2.234,5.781 -1.367,9.129 0.875,3.375 3.261,6.328 7.16,8.863 3.695,2.403 7.187,3.61 10.473,3.633 3.293,0.051 6.289,-1.629 8.988,-5.027 l -7.75,-5.035 c -0.758,0.925 -1.551,1.531 -2.379,1.82 -1.535,0.496 -3.328,0.078 -5.375,-1.25 -1.688,-1.094 -2.723,-2.141 -3.106,-3.137 -0.363,-0.984 -0.32,-1.832 0.141,-2.539 0.578,-0.887 1.375,-1.285 2.395,-1.187 1.035,0.078 4.191,1.109 9.472,3.097 3.555,1.274 6.575,1.68 9.071,1.211 2.488,-0.496 4.457,-1.859 5.906,-4.09 1.906,-2.937 2.371,-6.054 1.387,-9.343 -0.973,-3.262 -3.747,-6.375 -8.313,-9.344 -4.66,-3.024 -8.738,-4.281 -12.242,-3.774 -3.492,0.539 -6.231,2.332 -8.207,5.379 l 7.859,5.102"/>
      <path id="path86" style="fill:#1f4fa2;fill-opacity:1;fill-rule:evenodd;stroke:none" d="m 534.406,207.195 -7.179,-6.023 -5.481,6.531 7.18,6.024 z m -4.468,-9.254 7.179,6.024 22.715,-27.074 -7.176,-6.024 -22.718,27.074"/>
      <path id="path88" style="fill:#1f4fa2;fill-opacity:1;fill-rule:nonzero;stroke:none" d="m 546.902,203.258 -4.574,4.738 3.547,3.422 -6.848,7.09 6.575,6.351 6.847,-7.089 4.129,3.988 4.574,-4.738 -4.129,-3.985 12.973,-13.433 c 1.008,-1.043 1.77,-1.571 2.289,-1.579 0.504,0.004 1.434,0.665 2.785,1.969 0.203,0.196 0.414,0.399 0.633,0.61 0.215,0.238 0.426,0.472 0.629,0.699 l 4.797,-4.969 -3.035,-3.156 c -3.035,-3.145 -5.707,-4.672 -8.016,-4.586 -1.48,0.043 -2.988,0.855 -4.519,2.441 l -15.114,15.653 -3.543,-3.426"/>
      <path id="path90" style="fill:#1f4fa2;fill-opacity:1;fill-rule:evenodd;stroke:none" d="m 574.379,229.379 c 0.309,-1.75 1.258,-3.465 2.848,-5.141 l 9.039,11.164 c -1.993,1.418 -3.899,2 -5.715,1.75 -1.824,-0.222 -3.352,-1.097 -4.59,-2.629 -1.348,-1.66 -1.875,-3.378 -1.582,-5.144 z m 1.945,15.074 c 2.34,1.137 4.914,1.555 7.731,1.25 2.5,-0.246 4.953,-1.078 7.363,-2.5 1.406,-0.836 3.281,-2.226 5.625,-4.18 L 581.82,220.227 c 2.836,-2.133 5.469,-2.832 7.899,-2.098 1.492,0.43 2.801,1.348 3.929,2.738 1.2,1.481 1.75,3.02 1.661,4.625 -0.047,0.871 -0.317,1.828 -0.809,2.867 l 5.938,7.332 c 1.48,-1.503 2.445,-3.691 2.902,-6.566 0.765,-4.512 -0.563,-8.887 -3.992,-13.121 -2.832,-3.496 -6.453,-5.664 -10.868,-6.512 -4.41,-0.851 -9.156,0.781 -14.23,4.887 -4.754,3.851 -7.426,8.004 -8.016,12.461 -0.578,4.472 0.692,8.633 3.805,12.48 1.848,2.285 3.945,3.996 6.285,5.133"/>
      <path id="path92" style="fill:#1f4fa2;fill-opacity:1;fill-rule:nonzero;stroke:none" d="m 610.703,252.715 c 1.508,-0.68 2.727,-0.922 3.652,-0.719 1.645,0.344 3.266,1.844 4.856,4.492 0.937,1.559 1.445,2.93 1.527,4.117 0.094,1.204 -0.324,2.083 -1.25,2.641 -0.89,0.535 -1.789,0.57 -2.695,0.109 -0.91,-0.464 -3.359,-2.738 -7.352,-6.82 -2.91,-2.914 -5.429,-4.695 -7.554,-5.332 -2.106,-0.652 -4.344,-0.265 -6.715,1.16 -2.801,1.68 -4.543,4.215 -5.231,7.606 -0.695,3.418 0.157,7.117 2.551,11.101 2.27,3.782 4.879,6.399 7.82,7.86 2.938,1.488 6.368,1.293 10.286,-0.578 l -4.762,-7.922 c -1.086,0.5 -2.063,0.695 -2.934,0.59 -1.597,-0.227 -3.027,-1.387 -4.285,-3.477 -1.035,-1.723 -1.508,-3.117 -1.414,-4.184 0.102,-1.043 0.516,-1.785 1.238,-2.218 0.907,-0.547 1.797,-0.551 2.672,-0.02 0.895,0.524 3.282,2.836 7.157,6.938 2.636,2.703 5.175,4.39 7.621,5.066 2.457,0.645 4.824,0.281 7.101,-1.09 3,-1.805 4.785,-4.398 5.344,-7.789 0.555,-3.359 -0.57,-7.371 -3.375,-12.043 -2.863,-4.762 -5.981,-7.68 -9.348,-8.758 -3.379,-1.047 -6.625,-0.633 -9.738,1.239 l 4.828,8.031"/>
      <path id="path94" style="fill:#1f4fa2;fill-opacity:1;fill-rule:evenodd;stroke:none" d="m 605.52,303.133 -3.961,-8.492 -7.727,3.605 3.957,8.492 z m -0.141,-10.274 3.961,8.493 32.031,-14.938 -3.961,-8.492 -32.031,14.937"/>
      <g transform="scale(0.999991,1.00001)" id="g96">
        <path id="path98" style="fill:none;stroke:#ed1c24;stroke-width:7.84262991;stroke-linecap:butt;stroke-linejoin:miter;stroke-miterlimit:3.8636899;stroke-dasharray:none;stroke-opacity:1" d="m 111.677,412.738 c 0,133.761 108.431,242.193 242.19,242.193 133.763,0 242.193,-108.432 242.193,-242.193 0,-133.756 -108.43,-242.189 -242.193,-242.189 -133.759,0 -242.19,108.433 -242.19,242.189 z"/>
      </g>
      <path id="path100" style="fill:#1f4fa2;fill-opacity:1;fill-rule:evenodd;stroke:none" d="m 127.691,555.633 -5.972,-7.922 -38.1682,28.762 5.9687,7.925 z m -54.1285,29.301 5.0742,6.73 6.1367,-4.621 -5.0742,-6.734 -6.1367,4.625"/>
      <path id="path102" style="fill:#1f4fa2;fill-opacity:1;fill-rule:nonzero;stroke:none" d="m 122.969,608.52 c 1.715,0.918 3.539,1.335 5.469,1.246 1.636,-0.075 3.07,-0.473 4.3,-1.184 1.211,-0.707 3.039,-2.051 5.492,-4.035 l 16.129,-13.059 -5.937,-7.336 -16.707,13.532 c -1.477,1.195 -2.875,1.91 -4.192,2.14 -1.804,0.379 -3.453,-0.347 -4.933,-2.179 -1.539,-1.899 -2.07,-3.86 -1.594,-5.883 0.469,-1.996 1.883,-3.946 4.231,-5.848 l 14.867,-12.043 -5.793,-7.156 -37.0158,29.976 5.7928,7.157 13.129,-10.629 c -0.75,2.332 -0.887,4.429 -0.41,6.297 0.48,1.89 1.332,3.593 2.555,5.109 1.375,1.695 2.914,2.992 4.617,3.895"/>
      <path id="path104" style="fill:#1f4fa2;fill-opacity:1;fill-rule:nonzero;stroke:none" d="m 159.273,612.203 c 1.266,-1.07 2.368,-1.637 3.317,-1.699 1.676,-0.121 3.644,0.875 5.906,2.984 1.328,1.239 2.195,2.414 2.602,3.532 0.422,1.132 0.265,2.093 -0.473,2.886 -0.707,0.758 -1.563,1.039 -2.563,0.844 -1.003,-0.195 -3.98,-1.703 -8.945,-4.527 -3.601,-2 -6.512,-3.016 -8.73,-3.043 -2.203,-0.047 -4.25,0.941 -6.141,2.965 -2.223,2.386 -3.199,5.304 -2.926,8.753 0.274,3.477 2.11,6.801 5.508,9.969 3.227,3.008 6.457,4.809 9.688,5.399 3.234,0.621 6.472,-0.512 9.722,-3.391 l -6.758,-6.305 c -0.906,0.782 -1.792,1.242 -2.66,1.379 -1.597,0.223 -3.289,-0.5 -5.074,-2.164 -1.473,-1.367 -2.308,-2.578 -2.512,-3.629 -0.191,-1.031 0.004,-1.855 0.578,-2.472 0.723,-0.778 1.575,-1.028 2.567,-0.754 1.004,0.254 3.933,1.82 8.789,4.691 3.277,1.875 6.184,2.797 8.723,2.77 2.535,-0.059 4.711,-1.059 6.523,-3.004 2.391,-2.559 3.387,-5.547 2.992,-8.957 -0.394,-3.383 -2.582,-6.93 -6.566,-10.645 -4.063,-3.793 -7.863,-5.738 -11.399,-5.844 -3.535,-0.078 -6.543,1.215 -9.019,3.871 l 6.851,6.391"/>
      <path id="path106" style="fill:#1f4fa2;fill-opacity:1;fill-rule:evenodd;stroke:none" d="m 196.91,649.93 c -0.269,-0.641 -0.582,-1.227 -0.941,-1.77 -0.356,-0.512 -0.899,-1.144 -1.641,-1.898 l -1.476,-1.508 c -1.395,-1.402 -2.293,-2.547 -2.7,-3.438 -0.683,-1.507 -0.519,-2.988 0.496,-4.441 0.907,-1.293 1.918,-1.984 3.036,-2.07 1.121,-0.059 2.199,0.269 3.226,0.992 1.629,1.141 2.789,2.664 3.485,4.574 0.71,1.926 0.207,4.172 -1.512,6.742 z m -7.07,0.312 c 1.273,1.156 2.121,2.078 2.535,2.766 0.762,1.215 0.797,2.312 0.117,3.285 -0.832,1.187 -1.82,1.711 -2.961,1.57 -1.136,-0.113 -2.5,-0.722 -4.097,-1.84 -1.789,-1.25 -2.743,-2.582 -2.868,-3.988 -0.07,-1.027 0.196,-2.16 0.797,-3.398 l -7.301,-5.114 c -1.613,2.641 -2.363,5.219 -2.246,7.731 0.215,3.949 2.754,7.629 7.625,11.039 3.172,2.219 6.426,3.562 9.77,4.027 3.34,0.469 6.23,-1.047 8.672,-4.531 l 9.301,-13.281 c 0.648,-0.922 1.445,-2.024 2.398,-3.309 0.746,-0.957 1.367,-1.523 1.863,-1.703 0.496,-0.18 1.071,-0.215 1.731,-0.094 l 0.781,-1.117 -8.234,-5.765 c -0.641,0.421 -1.184,0.859 -1.633,1.312 -0.445,0.449 -0.926,0.984 -1.438,1.606 -0.25,-1.868 -0.781,-3.676 -1.586,-5.426 -0.972,-2.078 -2.488,-3.84 -4.539,-5.278 -2.621,-1.836 -5.308,-2.609 -8.07,-2.324 -2.754,0.313 -5.09,1.844 -7.012,4.59 -2.492,3.559 -2.925,7.094 -1.297,10.609 0.899,1.922 2.68,4.09 5.34,6.512 l 2.352,2.121"/>
      <path id="path108" style="fill:#1f4fa2;fill-opacity:1;fill-rule:nonzero;stroke:none" d="m 235.328,688.629 c 2.922,-0.738 5.317,-3.113 7.188,-7.133 l 10.062,-21.566 -8.582,-4.004 -9.086,19.484 c -0.785,1.684 -1.617,2.871 -2.484,3.563 -1.59,1.261 -3.543,1.355 -5.852,0.277 -2.844,-1.324 -4.23,-3.438 -4.164,-6.34 0.043,-1.531 0.531,-3.285 1.453,-5.265 l 8.086,-17.336 -8.347,-3.891 -14.911,31.973 8.082,3.765 2.18,-4.672 c 0.309,2.149 0.777,3.809 1.399,4.981 1.121,2.097 3,3.762 5.648,4.996 3.309,1.543 6.422,1.934 9.328,1.168"/>
      <path id="path110" style="fill:#1f4fa2;fill-opacity:1;fill-rule:evenodd;stroke:none" d="m 283.828,711.02 5.953,-30.622 9.039,1.758 c 4.625,0.899 7.407,3.805 8.348,8.723 0.508,2.699 0.426,5.777 -0.242,9.234 -0.93,4.774 -2.395,8.289 -4.399,10.543 -1.984,2.278 -5.203,2.985 -9.656,2.117 z m 16.567,10.617 c 3.5,-0.442 6.546,-1.91 9.144,-4.399 2.086,-2.019 3.691,-4.328 4.816,-6.926 1.122,-2.601 1.922,-5.132 2.403,-7.593 1.211,-6.239 0.984,-11.766 -0.676,-16.582 -2.262,-6.496 -6.934,-10.43 -14.023,-11.809 l -20.211,-3.93 -9.118,46.918 20.208,3.93 c 2.917,0.52 5.402,0.652 7.457,0.391"/>
      <path id="path112" style="fill:#1f4fa2;fill-opacity:1;fill-rule:evenodd;stroke:none" d="m 352.246,688.684 c 1.383,1.968 2.008,4.73 1.883,8.273 -0.121,3.543 -0.941,6.238 -2.453,8.09 -1.516,1.871 -3.621,2.758 -6.324,2.668 -2.7,-0.098 -4.75,-1.129 -6.153,-3.106 -1.379,-1.949 -2.011,-4.699 -1.887,-8.242 0.126,-3.543 0.942,-6.25 2.458,-8.121 1.535,-1.871 3.656,-2.758 6.355,-2.664 2.699,0.094 4.742,1.125 6.121,3.102 z m 7.566,-4.864 c -2.851,-3.777 -7.316,-5.769 -13.382,-5.984 -6.071,-0.211 -10.66,1.469 -13.77,5.035 -3.113,3.59 -4.758,7.977 -4.937,13.164 -0.18,5.098 1.156,9.567 4.007,13.41 2.852,3.84 7.309,5.867 13.383,6.078 6.071,0.211 10.66,-1.5 13.774,-5.132 3.113,-3.633 4.754,-8 4.933,-13.098 0.18,-5.184 -1.156,-9.676 -4.008,-13.473"/>
      <path id="path114" style="fill:#1f4fa2;fill-opacity:1;fill-rule:evenodd;stroke:none" d="m 395.262,686.188 c 1.707,1.417 2.804,3.89 3.304,7.425 0.465,3.317 0.114,5.942 -1.054,7.875 -1.149,1.93 -2.903,3.059 -5.254,3.391 -3.211,0.449 -5.641,-0.746 -7.285,-3.594 -0.868,-1.515 -1.465,-3.449 -1.797,-5.805 -0.285,-2.035 -0.196,-3.89 0.265,-5.57 0.825,-3.129 2.844,-4.918 6.055,-5.371 2.141,-0.301 4.063,0.25 5.766,1.649 z m 0.414,25.546 c 2.097,-1.234 3.656,-3.179 4.683,-5.832 l 0.707,5.039 8.895,-1.25 -4.668,-33.199 c -0.633,-4.515 -1.875,-7.812 -3.715,-9.89 -3.164,-3.571 -8.449,-4.836 -15.855,-3.797 -4.473,0.629 -8,2.019 -10.578,4.172 -2.583,2.152 -3.774,4.996 -3.583,8.527 l 9.954,-1.399 c 0.105,-1.109 0.414,-1.937 0.925,-2.492 0.868,-0.968 2.465,-1.621 4.801,-1.949 3.297,-0.465 5.656,0.328 7.078,2.379 0.926,1.309 1.625,3.633 2.094,6.973 l 0.316,2.25 c -1.085,-1.379 -2.187,-2.368 -3.3,-2.977 -2.016,-1.137 -4.477,-1.496 -7.387,-1.09 -4.496,0.633 -7.871,2.711 -10.129,6.239 -2.226,3.542 -2.965,8.011 -2.207,13.406 0.734,5.203 2.641,9.386 5.727,12.554 3.089,3.192 7.011,4.45 11.761,3.782 1.758,-0.246 3.25,-0.731 4.481,-1.446 z m 7.121,6.168 c -2.121,-1.273 -4.832,-1.675 -8.129,-1.214 -3.293,0.464 -5.789,1.601 -7.477,3.41 -1.683,1.828 -2.437,4.402 -2.253,7.714 l 4.332,-0.609 c 0.023,-2.012 0.863,-3.492 2.519,-4.445 0.926,-0.547 2.121,-0.922 3.574,-1.125 1.457,-0.203 2.703,-0.172 3.746,0.094 1.856,0.461 3.071,1.652 3.645,3.582 l 4.336,-0.61 c -0.738,-3.234 -2.168,-5.504 -4.293,-6.797"/>
      <path id="path116" style="fill:#1f4fa2;fill-opacity:1;fill-rule:nonzero;stroke:none" d="m 443.375,702.227 c 0.125,-0.036 0.383,-0.118 0.773,-0.243 l -2.449,-9.144 c -0.547,0.215 -1.039,0.387 -1.469,0.527 -0.433,0.137 -0.789,0.242 -1.058,0.317 -3.594,0.964 -6.317,0.441 -8.176,-1.571 -1.043,-1.129 -1.926,-3.062 -2.66,-5.797 l -4.375,-16.32 -8.988,2.41 9.148,34.137 8.52,-2.281 -1.594,-5.95 c 1.988,1.907 3.605,3.141 4.851,3.7 2.043,0.953 4.403,1.07 7.075,0.355 0.168,-0.047 0.3,-0.094 0.402,-0.14"/>
      <path id="path118" style="fill:#1f4fa2;fill-opacity:1;fill-rule:evenodd;stroke:none" d="m 466.086,673.676 c -0.676,-0.121 -1.344,-0.18 -1.992,-0.172 -0.621,0.019 -1.449,0.133 -2.485,0.34 l -2.07,0.418 c -1.934,0.406 -3.383,0.539 -4.351,0.39 -1.641,-0.246 -2.79,-1.191 -3.454,-2.832 -0.593,-1.465 -0.621,-2.687 -0.086,-3.675 0.563,-0.973 1.426,-1.692 2.586,-2.165 1.844,-0.742 3.758,-0.886 5.739,-0.429 2,0.453 3.609,2.097 4.828,4.941 z m -3.582,6.101 c 1.66,-0.437 2.894,-0.648 3.699,-0.621 1.434,0.028 2.371,0.594 2.82,1.696 0.539,1.339 0.442,2.453 -0.296,3.336 -0.715,0.894 -1.969,1.703 -3.774,2.433 -2.023,0.817 -3.66,0.895 -4.906,0.234 -0.902,-0.5 -1.707,-1.339 -2.418,-2.519 l -8.266,3.34 c 1.336,2.793 3.09,4.824 5.258,6.094 3.43,1.968 7.902,1.839 13.414,-0.387 3.586,-1.449 6.485,-3.449 8.699,-5.996 2.207,-2.547 2.516,-5.797 0.922,-9.746 l -6.074,-15.032 c -0.422,-1.043 -0.91,-2.312 -1.469,-3.812 -0.394,-1.145 -0.531,-1.977 -0.414,-2.492 0.121,-0.512 0.406,-1.016 0.863,-1.5 l -0.507,-1.266 -9.321,3.766 c 0.004,0.769 0.075,1.461 0.211,2.086 0.133,0.621 0.321,1.312 0.559,2.078 -1.699,-0.805 -3.504,-1.344 -5.41,-1.625 -2.274,-0.317 -4.571,-0.004 -6.899,0.933 -2.965,1.2 -5.082,3.035 -6.343,5.504 -1.235,2.481 -1.227,5.274 0.027,8.379 1.629,4.031 4.359,6.317 8.195,6.867 2.102,0.293 4.887,-0.019 8.367,-0.933 l 3.063,-0.817"/>
      <path id="path120" style="fill:#1f4fa2;fill-opacity:1;fill-rule:nonzero;stroke:none" d="m 534.602,655.887 c 0.937,-1.332 1.511,-2.969 1.722,-4.907 0.16,-1.578 -0.101,-3.21 -0.789,-4.902 -0.465,-1.117 -1.324,-2.633 -2.57,-4.555 l -12.184,-18.648 -7.941,5.156 12.254,18.875 c 0.73,1.121 1.148,2.164 1.258,3.125 0.203,1.824 -0.618,3.336 -2.465,4.539 -2.141,1.391 -4.196,1.461 -6.164,0.215 -1.032,-0.672 -1.973,-1.672 -2.832,-2.992 l -11.461,-17.648 -7.805,5.066 11.461,17.648 c 1.141,1.758 1.789,3.157 1.945,4.188 0.278,1.855 -0.535,3.402 -2.437,4.637 -2.211,1.437 -4.164,1.687 -5.856,0.75 -0.945,-0.543 -1.945,-1.625 -2.992,-3.239 l -11.586,-17.84 -7.859,5.106 19.215,29.586 7.531,-4.891 -2.805,-4.324 c 1.961,0.918 3.578,1.426 4.856,1.523 2.257,0.184 4.582,-0.5 6.976,-2.054 2.266,-1.473 3.774,-3.16 4.524,-5.063 0.519,-1.656 0.601,-3.398 0.242,-5.222 2.144,1.082 4.234,1.539 6.265,1.379 2.129,-0.223 4.168,-0.965 6.129,-2.239 1.305,-0.847 2.426,-1.937 3.368,-3.269"/>
      <path id="path122" style="fill:#1f4fa2;fill-opacity:1;fill-rule:evenodd;stroke:none" d="m 554.633,614.387 c -0.68,0.129 -1.321,0.312 -1.926,0.554 -0.574,0.239 -1.305,0.641 -2.199,1.207 l -1.781,1.129 c -1.661,1.075 -2.965,1.719 -3.922,1.93 -1.617,0.355 -3.032,-0.113 -4.239,-1.41 -1.078,-1.156 -1.543,-2.289 -1.398,-3.399 0.176,-1.109 0.723,-2.093 1.641,-2.949 1.453,-1.355 3.187,-2.176 5.203,-2.457 2.027,-0.293 4.121,0.664 6.273,2.883 z m -1.16,6.98 c 1.394,-1.008 2.468,-1.64 3.23,-1.906 1.344,-0.488 2.426,-0.297 3.238,0.57 0.985,1.063 1.293,2.133 0.918,3.223 -0.343,1.09 -1.226,2.297 -2.648,3.625 -1.598,1.488 -3.098,2.144 -4.496,1.976 -1.024,-0.144 -2.074,-0.64 -3.16,-1.488 l -6.524,6.082 c 2.25,2.129 4.617,3.395 7.094,3.805 3.91,0.609 8.039,-1.113 12.387,-5.168 2.828,-2.637 4.82,-5.543 5.972,-8.715 1.149,-3.172 0.27,-6.316 -2.632,-9.43 l -11.055,-11.855 c -0.77,-0.824 -1.684,-1.832 -2.742,-3.031 -0.778,-0.93 -1.203,-1.657 -1.278,-2.18 -0.074,-0.523 0.016,-1.094 0.266,-1.711 l -0.926,-0.996 -7.351,6.855 c 0.281,0.715 0.597,1.336 0.945,1.868 0.348,0.531 0.769,1.113 1.269,1.742 -1.878,-0.141 -3.757,0 -5.636,0.426 -2.235,0.515 -4.27,1.632 -6.106,3.339 -2.34,2.184 -3.656,4.653 -3.953,7.411 -0.262,2.757 0.746,5.363 3.035,7.816 2.961,3.176 6.332,4.332 10.106,3.473 2.066,-0.481 4.558,-1.77 7.48,-3.871 l 2.567,-1.86"/>
      <path id="path124" style="fill:#1f4fa2;fill-opacity:1;fill-rule:nonzero;stroke:none" d="m 587.191,585.742 c 0.918,0.965 1.563,2.059 1.938,3.278 0.453,1.707 -0.004,3.406 -1.379,5.101 -1.957,2.418 -4.5,3.102 -7.621,2.047 -1.66,-0.563 -3.547,-1.703 -5.664,-3.418 -2.016,-1.633 -3.445,-3.18 -4.289,-4.641 -1.594,-2.711 -1.43,-5.246 0.488,-7.617 1.363,-1.676 2.781,-2.504 4.258,-2.472 1.48,0.027 3.004,0.55 4.57,1.57 l 5.938,-7.332 c -2.321,-1.602 -5.028,-2.488 -8.118,-2.653 -4.964,-0.293 -9.234,1.77 -12.812,6.188 -3.578,4.418 -4.898,8.73 -3.965,12.937 0.934,4.204 3.488,8 7.676,11.387 4.719,3.824 9.32,5.645 13.805,5.465 4.484,-0.18 8.367,-2.293 11.644,-6.34 2.789,-3.445 4.293,-6.883 4.52,-10.32 0.234,-3.453 -1.442,-6.965 -5.028,-10.539 l -5.961,7.359"/>
      <path id="path126" style="fill:#1f4fa2;fill-opacity:1;fill-rule:nonzero;stroke:none" d="m 609.5,575.738 4.965,-7.945 -29.973,-18.731 -4.965,7.95 29.973,18.726"/>
      <path id="path128" style="fill:#ffffff;fill-opacity:1;fill-rule:nonzero;stroke:none" d="m 353.84,188.281 c 156.254,52.207 167.32,221.879 165.918,374.914 -15.828,1.336 -32.946,3.184 -50.149,5.18 -65.136,7.563 -104.035,33.434 -115.769,42.191 -11.731,-8.757 -50.633,-34.628 -115.766,-42.191 -17.203,-1.996 -34.32,-3.844 -50.152,-5.18 C 186.52,410.16 197.586,240.488 353.84,188.281"/>
      <g transform="scale(0.999991,1.00001)" id="g130">
        <path id="path132" style="fill:none;stroke:#ffffff;stroke-width:14.75829983;stroke-linecap:butt;stroke-linejoin:miter;stroke-miterlimit:3.8636899;stroke-dasharray:none;stroke-opacity:1" d="m 353.843,188.279 c 156.255,52.207 167.322,221.877 165.92,374.911 -15.829,1.336 -32.946,3.184 -50.149,5.18 -65.138,7.562 -104.036,33.433 -115.771,42.191 -11.73,-8.758 -50.633,-34.629 -115.767,-42.191 -17.203,-1.996 -34.32,-3.844 -50.152,-5.18 -1.403,-153.034 9.664,-322.704 165.919,-374.911 z"/>
      </g>
      <path id="path134" style="fill:#ffffff;fill-opacity:1;fill-rule:nonzero;stroke:none" d="m 200.066,552.238 c 12.918,1.211 26.493,2.7 40.118,4.282 58.14,6.75 96.25,27.695 113.683,39.355 17.43,-11.66 55.543,-32.605 113.684,-39.355 13.625,-1.582 27.195,-3.071 40.117,-4.286 C 508.414,402.828 493.977,252.238 353.867,203.031 213.754,252.242 199.324,402.832 200.066,552.238"/>
      <g transform="scale(0.999991,1.00001)" id="g136">
        <path id="path138" style="fill:none;stroke:#ed1c24;stroke-width:6.54787016;stroke-linecap:butt;stroke-linejoin:miter;stroke-miterlimit:3.8636899;stroke-dasharray:none;stroke-opacity:1" d="m 200.068,552.233 c 12.918,1.211 26.493,2.699 40.118,4.281 58.141,6.75 96.251,27.695 113.684,39.355 17.43,-11.66 55.544,-32.605 113.685,-39.355 13.625,-1.582 27.196,-3.07 40.118,-4.285 C 508.419,402.824 493.981,252.236 353.87,203.029 213.756,252.24 199.326,402.828 200.068,552.233 Z"/>
      </g>
      <path id="path140" style="fill:#ffffff;fill-opacity:1;fill-rule:nonzero;stroke:none" d="M 353.84,211.176 C 224.789,259.039 207.102,396.551 207.094,546.41 c 10.207,1.035 20.703,2.203 31.226,3.426 55.782,6.476 94.465,24.855 115.52,37.84 21.055,-12.985 59.738,-31.364 115.519,-37.84 10.528,-1.223 21.024,-2.391 31.231,-3.426 C 500.578,396.551 482.891,259.039 353.84,211.176"/>
      <g id="g142">
        <g clip-path="url(#clipPath148)" id="g144">
          <path id="path150" style="fill:#1f4fa2;fill-opacity:1;fill-rule:evenodd;stroke:none" d="M 481.348,597.301 505.797,579.535 353.828,293.68 v 0 l 127.52,303.621"/>
        </g>
      </g>
      <g id="g152">
        <g clip-path="url(#clipPath158)" id="g154">
          <g clip-path="url(#clipPath164)" id="g160">
            <path id="path166" style="fill:#ed1c24;fill-opacity:1;fill-rule:nonzero;stroke:none" d="m 453.996,517.043 h 17.7109 v 9.14844 H 453.996 Z"/>
          </g>
        </g>
      </g>
      <g id="g168">
        <g clip-path="url(#clipPath174)" id="g170">
          <g transform="scale(0.999991,1.00001)" id="g176">
            <path id="path178" style="fill:none;stroke:#ffffff;stroke-width:1.88897002;stroke-linecap:butt;stroke-linejoin:miter;stroke-miterlimit:3.8636899;stroke-dasharray:none;stroke-opacity:1" d="M 481.352,597.295 505.802,579.53 353.831,293.677 v 0 z"/>
          </g>
          <path id="path180" style="fill:#1f4fa2;fill-opacity:1;fill-rule:evenodd;stroke:none" d="m 338.5,633.383 30.598,-0.004 -15.293,-339.699 v 0 L 338.5,633.383"/>
          <g transform="scale(0.999991,1.00001)" id="g182">
            <path id="path184" style="fill:none;stroke:#ffffff;stroke-width:1.88897002;stroke-linecap:butt;stroke-linejoin:miter;stroke-miterlimit:3.8636899;stroke-dasharray:none;stroke-opacity:1" d="m 338.503,633.377 30.598,-0.004 -15.293,-339.696 v 0 z"/>
          </g>
          <path id="path186" style="fill:#1f4fa2;fill-opacity:1;fill-rule:evenodd;stroke:none" d="m 375.984,633.031 29.852,-4.73 -52.031,-334.621 v 0 l 22.179,339.351"/>
          <g transform="scale(0.999991,1.00001)" id="g188">
            <path id="path190" style="fill:none;stroke:#ffffff;stroke-width:1.88897002;stroke-linecap:butt;stroke-linejoin:miter;stroke-miterlimit:3.8636899;stroke-dasharray:none;stroke-opacity:1" d="m 375.988,633.025 29.852,-4.73 -52.032,-334.618 v 0 z"/>
          </g>
          <path id="path192" style="fill:#1f4fa2;fill-opacity:1;fill-rule:evenodd;stroke:none" d="m 412.793,626.68 28.742,-9.34 -87.73,-323.66 v 0 l 58.988,333"/>
          <g transform="scale(0.999991,1.00001)" id="g194">
            <path id="path196" style="fill:none;stroke:#ffffff;stroke-width:1.88897002;stroke-linecap:butt;stroke-linejoin:miter;stroke-miterlimit:3.8636899;stroke-dasharray:none;stroke-opacity:1" d="m 412.797,626.674 28.742,-9.34 -87.731,-323.657 v 0 z"/>
          </g>
          <path id="path198" style="fill:#1f4fa2;fill-opacity:1;fill-rule:evenodd;stroke:none" d="M 448.973,614.629 475.656,600.441 353.805,293.68 v 0 l 95.168,320.949"/>
          <g transform="scale(0.999991,1.00001)" id="g200">
            <path id="path202" style="fill:none;stroke:#ffffff;stroke-width:1.88897002;stroke-linecap:butt;stroke-linejoin:miter;stroke-miterlimit:3.8636899;stroke-dasharray:none;stroke-opacity:1" d="M 448.977,614.623 475.661,600.436 353.808,293.677 v 0 z"/>
          </g>
          <path id="path204" style="fill:#1f4fa2;fill-opacity:1;fill-rule:evenodd;stroke:none" d="M 511.723,574.395 532.719,552.656 353.805,293.68 v 0 l 157.918,280.715"/>
          <g transform="scale(0.999991,1.00001)" id="g206">
            <path id="path208" style="fill:none;stroke:#ffffff;stroke-width:1.88897002;stroke-linecap:butt;stroke-linejoin:miter;stroke-miterlimit:3.8636899;stroke-dasharray:none;stroke-opacity:1" d="M 511.727,574.389 532.724,552.651 353.808,293.677 v 0 z"/>
          </g>
          <path id="path210" style="fill:#1f4fa2;fill-opacity:1;fill-rule:evenodd;stroke:none" d="M 537.715,547.387 555.051,522.629 353.805,293.68 v 0 l 183.91,253.707"/>
          <g transform="scale(0.999991,1.00001)" id="g212">
            <path id="path214" style="fill:none;stroke:#ffffff;stroke-width:1.88897002;stroke-linecap:butt;stroke-linejoin:miter;stroke-miterlimit:3.8636899;stroke-dasharray:none;stroke-opacity:1" d="M 537.72,547.382 555.056,522.624 353.808,293.677 v 0 z"/>
          </g>
          <path id="path216" style="fill:#1f4fa2;fill-opacity:1;fill-rule:evenodd;stroke:none" d="M 558.379,517.27 572.102,490.34 353.805,293.68 v 0 l 204.574,223.59"/>
          <g transform="scale(0.999991,1.00001)" id="g218">
            <path id="path220" style="fill:none;stroke:#ffffff;stroke-width:1.88897002;stroke-linecap:butt;stroke-linejoin:miter;stroke-miterlimit:3.8636899;stroke-dasharray:none;stroke-opacity:1" d="m 558.384,517.265 13.723,-26.93 -218.299,-196.658 v 0 z"/>
          </g>
          <path id="path222" style="fill:#1f4fa2;fill-opacity:1;fill-rule:evenodd;stroke:none" d="M 574.996,482.785 583.832,453.883 353.805,293.68 v 0 l 221.191,189.105"/>
          <g transform="scale(0.999991,1.00001)" id="g224">
            <path id="path226" style="fill:none;stroke:#ffffff;stroke-width:1.88897002;stroke-linecap:butt;stroke-linejoin:miter;stroke-miterlimit:3.8636899;stroke-dasharray:none;stroke-opacity:1" d="m 575.001,482.781 8.836,-28.902 -230.029,-160.202 v 0 z"/>
          </g>
          <path id="path228" style="fill:#1f4fa2;fill-opacity:1;fill-rule:evenodd;stroke:none" d="m 585.84,446.199 3.68,-30 L 353.805,293.68 v 0 L 585.84,446.199"/>
          <g transform="scale(0.999991,1.00001)" id="g230">
            <path id="path232" style="fill:none;stroke:#ffffff;stroke-width:1.88897002;stroke-linecap:butt;stroke-linejoin:miter;stroke-miterlimit:3.8636899;stroke-dasharray:none;stroke-opacity:1" d="m 585.845,446.195 3.68,-30 -235.717,-122.518 v 0 z"/>
          </g>
          <path id="path234" style="fill:#1f4fa2;fill-opacity:1;fill-rule:evenodd;stroke:none" d="M 590.254,409.004 589.199,378.797 353.805,293.68 v 0 l 236.449,115.324"/>
          <g transform="scale(0.999991,1.00001)" id="g236">
            <path id="path238" style="fill:none;stroke:#ffffff;stroke-width:1.88897002;stroke-linecap:butt;stroke-linejoin:miter;stroke-miterlimit:3.8636899;stroke-dasharray:none;stroke-opacity:1" d="m 590.259,409 -1.054,-30.207 -235.397,-85.116 v 0 z"/>
          </g>
          <path id="path240" style="fill:#1f4fa2;fill-opacity:1;fill-rule:evenodd;stroke:none" d="M 588.738,371.707 582.969,342.035 353.805,293.68 v 0 l 234.933,78.027"/>
          <g transform="scale(0.999991,1.00001)" id="g242">
            <path id="path244" style="fill:none;stroke:#ffffff;stroke-width:1.88897002;stroke-linecap:butt;stroke-linejoin:miter;stroke-miterlimit:3.8636899;stroke-dasharray:none;stroke-opacity:1" d="m 588.744,371.704 -5.77,-29.672 -229.166,-48.355 v 0 z"/>
          </g>
          <path id="path246" style="fill:#1f4fa2;fill-opacity:1;fill-rule:evenodd;stroke:none" d="m 581.535,335.777 -9.84,-25.914 -217.89,-16.183 v 0 l 227.73,42.097"/>
          <g transform="scale(0.999991,1.00001)" id="g248">
            <path id="path250" style="fill:none;stroke:#ffffff;stroke-width:1.88897002;stroke-linecap:butt;stroke-linejoin:miter;stroke-miterlimit:3.8636899;stroke-dasharray:none;stroke-opacity:1" d="m 581.541,335.774 -9.84,-25.914 -217.893,-16.183 v 0 z"/>
          </g>
          <path id="path252" style="fill:#1f4fa2;fill-opacity:1;fill-rule:evenodd;stroke:none" d="m 568.434,303.176 -14.653,-29.102 -199.976,20.145 v 0 l 214.629,8.957"/>
          <g transform="scale(0.999991,1.00001)" id="g254">
            <path id="path256" style="fill:none;stroke:#ffffff;stroke-width:1.88897002;stroke-linecap:butt;stroke-linejoin:miter;stroke-miterlimit:3.8636899;stroke-dasharray:none;stroke-opacity:1" d="m 568.439,303.173 -14.653,-29.101 -199.978,20.144 v 0 z"/>
          </g>
          <path id="path258" style="fill:#1f4fa2;fill-opacity:1;fill-rule:evenodd;stroke:none" d="m 331.617,633.031 -29.851,-4.73 52.031,-334.621 v 0 l -22.18,339.351"/>
          <g transform="scale(0.999991,1.00001)" id="g260">
            <path id="path262" style="fill:none;stroke:#ffffff;stroke-width:1.88897002;stroke-linecap:butt;stroke-linejoin:miter;stroke-miterlimit:3.8636899;stroke-dasharray:none;stroke-opacity:1" d="m 331.62,633.025 -29.852,-4.73 52.032,-334.618 v 0 z"/>
          </g>
          <path id="path264" style="fill:#1f4fa2;fill-opacity:1;fill-rule:evenodd;stroke:none" d="m 294.809,626.68 -28.747,-9.34 87.735,-323.66 v 0 l -58.988,333"/>
          <g transform="scale(0.999991,1.00001)" id="g266">
            <path id="path268" style="fill:none;stroke:#ffffff;stroke-width:1.88897002;stroke-linecap:butt;stroke-linejoin:miter;stroke-miterlimit:3.8636899;stroke-dasharray:none;stroke-opacity:1" d="m 294.811,626.674 -28.746,-9.34 87.735,-323.657 v 0 z"/>
          </g>
          <path id="path270" style="fill:#1f4fa2;fill-opacity:1;fill-rule:evenodd;stroke:none" d="M 258.629,614.629 231.945,600.441 353.797,293.68 v 0 l -95.168,320.949"/>
          <g transform="scale(0.999991,1.00001)" id="g272">
            <path id="path274" style="fill:none;stroke:#ffffff;stroke-width:1.88897002;stroke-linecap:butt;stroke-linejoin:miter;stroke-miterlimit:3.8636899;stroke-dasharray:none;stroke-opacity:1" d="M 258.631,614.623 231.947,600.436 353.8,293.677 v 0 z"/>
          </g>
          <path id="path276" style="fill:#1f4fa2;fill-opacity:1;fill-rule:evenodd;stroke:none" d="M 226.277,597.301 201.828,579.535 353.797,293.68 v 0 l -127.52,303.621"/>
        </g>
      </g>
      <g id="g278">
        <g clip-path="url(#clipPath284)" id="g280">
          <g clip-path="url(#clipPath290)" id="g286">
            <path id="path292" style="fill:#ed1c24;fill-opacity:1;fill-rule:nonzero;stroke:none" d="m 236.59,517.273 h 16.5859 v 8.39062 H 236.59 Z"/>
          </g>
        </g>
      </g>
      <g id="g294">
        <g clip-path="url(#clipPath300)" id="g296">
          <g transform="scale(0.999991,1.00001)" id="g302">
            <path id="path304" style="fill:none;stroke:#ffffff;stroke-width:1.88897002;stroke-linecap:butt;stroke-linejoin:miter;stroke-miterlimit:3.8636899;stroke-dasharray:none;stroke-opacity:1" d="M 226.279,597.295 201.83,579.53 353.8,293.677 v 0 z"/>
          </g>
          <path id="path306" style="fill:#1f4fa2;fill-opacity:1;fill-rule:evenodd;stroke:none" d="M 195.879,574.395 174.883,552.656 353.797,293.68 v 0 L 195.879,574.395"/>
          <g transform="scale(0.999991,1.00001)" id="g308">
            <path id="path310" style="fill:none;stroke:#ffffff;stroke-width:1.88897002;stroke-linecap:butt;stroke-linejoin:miter;stroke-miterlimit:3.8636899;stroke-dasharray:none;stroke-opacity:1" d="M 195.881,574.389 174.884,552.651 353.8,293.677 v 0 z"/>
          </g>
          <path id="path312" style="fill:#1f4fa2;fill-opacity:1;fill-rule:evenodd;stroke:none" d="M 169.883,547.387 152.551,522.629 353.797,293.68 v 0 L 169.883,547.387"/>
          <g transform="scale(0.999991,1.00001)" id="g314">
            <path id="path316" style="fill:none;stroke:#ffffff;stroke-width:1.88897002;stroke-linecap:butt;stroke-linejoin:miter;stroke-miterlimit:3.8636899;stroke-dasharray:none;stroke-opacity:1" d="M 169.884,547.382 152.552,522.624 353.8,293.677 v 0 z"/>
          </g>
          <path id="path318" style="fill:#1f4fa2;fill-opacity:1;fill-rule:evenodd;stroke:none" d="M 149.223,517.27 135.5,490.34 353.797,293.68 v 0 L 149.223,517.27"/>
          <g transform="scale(0.999991,1.00001)" id="g320">
            <path id="path322" style="fill:none;stroke:#ffffff;stroke-width:1.88897002;stroke-linecap:butt;stroke-linejoin:miter;stroke-miterlimit:3.8636899;stroke-dasharray:none;stroke-opacity:1" d="M 149.224,517.265 135.501,490.335 353.8,293.677 v 0 z"/>
          </g>
          <path id="path324" style="fill:#1f4fa2;fill-opacity:1;fill-rule:evenodd;stroke:none" d="M 132.605,482.785 123.77,453.883 353.797,293.68 v 0 L 132.605,482.785"/>
          <g transform="scale(0.999991,1.00001)" id="g326">
            <path id="path328" style="fill:none;stroke:#ffffff;stroke-width:1.88897002;stroke-linecap:butt;stroke-linejoin:miter;stroke-miterlimit:3.8636899;stroke-dasharray:none;stroke-opacity:1" d="M 132.607,482.781 123.771,453.879 353.8,293.677 v 0 z"/>
          </g>
          <path id="path330" style="fill:#1f4fa2;fill-opacity:1;fill-rule:evenodd;stroke:none" d="m 121.762,446.199 -3.68,-30 235.715,-122.519 v 0 L 121.762,446.199"/>
          <g transform="scale(0.999991,1.00001)" id="g332">
            <path id="path334" style="fill:none;stroke:#ffffff;stroke-width:1.88897002;stroke-linecap:butt;stroke-linejoin:miter;stroke-miterlimit:3.8636899;stroke-dasharray:none;stroke-opacity:1" d="m 121.763,446.195 -3.68,-30 L 353.8,293.677 v 0 z"/>
          </g>
          <path id="path336" style="fill:#1f4fa2;fill-opacity:1;fill-rule:evenodd;stroke:none" d="m 117.344,409.004 1.058,-30.207 235.395,-85.117 v 0 L 117.344,409.004"/>
          <g transform="scale(0.999991,1.00001)" id="g338">
            <path id="path340" style="fill:none;stroke:#ffffff;stroke-width:1.88897002;stroke-linecap:butt;stroke-linejoin:miter;stroke-miterlimit:3.8636899;stroke-dasharray:none;stroke-opacity:1" d="m 117.345,409 1.058,-30.207 235.397,-85.116 v 0 z"/>
          </g>
          <path id="path342" style="fill:#1f4fa2;fill-opacity:1;fill-rule:evenodd;stroke:none" d="m 118.863,371.707 5.77,-29.672 229.164,-48.355 v 0 l -234.934,78.027"/>
          <g transform="scale(0.999991,1.00001)" id="g344">
            <path id="path346" style="fill:none;stroke:#ffffff;stroke-width:1.88897002;stroke-linecap:butt;stroke-linejoin:miter;stroke-miterlimit:3.8636899;stroke-dasharray:none;stroke-opacity:1" d="m 118.864,371.704 5.77,-29.672 229.166,-48.355 v 0 z"/>
          </g>
          <path id="path348" style="fill:#1f4fa2;fill-opacity:1;fill-rule:evenodd;stroke:none" d="m 126.066,335.777 9.84,-25.914 217.891,-16.183 v 0 l -227.731,42.097"/>
          <g transform="scale(0.999991,1.00001)" id="g350">
            <path id="path352" style="fill:none;stroke:#ffffff;stroke-width:1.88897002;stroke-linecap:butt;stroke-linejoin:miter;stroke-miterlimit:3.8636899;stroke-dasharray:none;stroke-opacity:1" d="m 126.068,335.774 9.84,-25.914 217.892,-16.183 v 0 z"/>
          </g>
          <path id="path354" style="fill:#1f4fa2;fill-opacity:1;fill-rule:evenodd;stroke:none" d="m 139.168,303.176 14.652,-29.102 199.977,20.145 v 0 l -214.629,8.957"/>
          <g transform="scale(0.999991,1.00001)" id="g356">
            <path id="path358" style="fill:none;stroke:#ffffff;stroke-width:1.88897002;stroke-linecap:butt;stroke-linejoin:miter;stroke-miterlimit:3.8636899;stroke-dasharray:none;stroke-opacity:1" d="m 139.169,303.173 14.653,-29.101 199.978,20.144 v 0 z"/>
          </g>
          <path id="path360" style="fill:#1f4fa2;fill-opacity:1;fill-rule:nonzero;stroke:none" d="m 451.699,289.273 c -21.883,-35.097 -52.91,-61.445 -97.808,-78.097 -44.852,16.633 -76.227,43.051 -98.11,78.097 h 195.918"/>
          <g transform="scale(0.999991,1.00001)" id="g362">
            <path id="path364" style="fill:none;stroke:#ffffff;stroke-width:3.40007997;stroke-linecap:butt;stroke-linejoin:miter;stroke-miterlimit:3.8636899;stroke-dasharray:none;stroke-opacity:1" d="m 451.703,289.271 c -21.883,-35.098 -52.91,-61.445 -97.809,-78.097 -44.852,16.632 -76.227,43.05 -98.11,78.097 z"/>
          </g>
          <path id="path366" style="fill:#ffffff;fill-opacity:1;fill-rule:nonzero;stroke:none" d="m 278.246,292.102 c 0,41.382 33.797,75.824 75.539,75.824 41.742,0 75.578,-34.442 75.578,-75.824 H 278.246"/>
          <g transform="scale(1.00424,0.995757)" id="g368">
            <path id="path370" style="fill:none;stroke:#ffffff;stroke-width:3.57387996;stroke-linecap:butt;stroke-linejoin:miter;stroke-miterlimit:3.8636899;stroke-dasharray:none;stroke-opacity:1" d="m 277.07,293.346 c 0,41.559 33.654,76.148 75.22,76.148 41.566,0 75.259,-34.589 75.259,-76.148 z"/>
          </g>
        </g>
      </g>
      <g transform="scale(0.999991,1.00001)" id="g372">
        <path id="path374" style="fill:none;stroke:#ffffff;stroke-width:1.15479004;stroke-linecap:butt;stroke-linejoin:miter;stroke-miterlimit:3.86370993;stroke-dasharray:none;stroke-opacity:1" d="m 353.843,211.174 c -129.052,47.863 -146.74,185.373 -146.747,335.231 10.207,1.035 20.703,2.203 31.227,3.426 55.781,6.476 94.465,24.855 115.52,37.839 21.055,-12.984 59.739,-31.363 115.521,-37.839 10.527,-1.223 21.023,-2.391 31.23,-3.426 C 500.583,396.547 482.895,259.037 353.843,211.174 Z"/>
      </g>
      <g transform="scale(0.999991,1.00001)" id="g376">
        <path id="path378" style="fill:none;stroke:#1f4fa2;stroke-width:6.54787016;stroke-linecap:butt;stroke-linejoin:miter;stroke-miterlimit:3.8636899;stroke-dasharray:none;stroke-opacity:1" d="m 353.843,189.963 c 155.009,51.789 165.986,220.107 164.599,371.918 -15.707,1.329 -32.684,3.161 -49.75,5.141 -64.618,7.504 -103.208,33.168 -114.849,41.851 -11.637,-8.683 -50.231,-34.347 -114.845,-41.851 -17.066,-1.98 -34.047,-3.812 -49.75,-5.141 -1.391,-151.811 9.586,-320.129 164.595,-371.918 z"/>
      </g>
      <path id="path380" style="fill:#ed1c24;fill-opacity:1;fill-rule:nonzero;stroke:none" d="m 280.727,293.184 c 0,39.168 33.195,72.632 72.66,72.875 l 0.433,0.003 h 0.242 l 0.247,-0.003 c 39.437,-0.274 72.644,-33.723 72.644,-72.875 -0.008,-0.641 0,-1.543 0,-2.184 H 280.727 c 0,0.641 0.007,1.543 0.023,2.184 h -0.023"/>
      <path id="path382" style="fill:#1f4fa2;fill-opacity:1;fill-rule:nonzero;stroke:none" d="m 231.625,528.953 20.586,-0.523 5.949,-12.864 -18.765,-0.675 -7.77,14.062"/>
      <g transform="scale(0.999991,1.00001)" id="g384">
        <path id="path386" style="fill:none;stroke:#1f4fa2;stroke-width:0.34586701;stroke-linecap:butt;stroke-linejoin:miter;stroke-miterlimit:3.8636899;stroke-dasharray:none;stroke-opacity:1" d="m 231.627,528.948 20.586,-0.523 5.95,-12.863 -18.766,-0.676 z"/>
      </g>
      <path id="path388" style="fill:#1f4fa2;fill-opacity:1;fill-rule:nonzero;stroke:none" d="m 468.855,531.754 -14.347,-2.625 -4.18,-11.067 19.184,-3.226 8.89,17.754 -9.547,-0.836"/>
      <g transform="scale(0.999991,1.00001)" id="g390">
        <path id="path392" style="fill:none;stroke:#1f4fa2;stroke-width:0.34586701;stroke-linecap:butt;stroke-linejoin:miter;stroke-miterlimit:3.8636899;stroke-dasharray:none;stroke-opacity:1" d="m 468.86,531.749 -14.348,-2.625 -4.18,-11.066 19.184,-3.227 8.891,17.754 z"/>
      </g>
      <path id="path394" style="fill:#ffffff;fill-opacity:1;fill-rule:nonzero;stroke:none" d="m 225.086,455.523 c 0,4.891 0,47.286 0,47.286 v 9.16 c 0,0 -1.266,12.164 12.164,12.164 14.391,0 15.91,-9.192 8.098,-9.192 l -8.559,-0.546 c 0,0 -4.375,-0.129 -4.375,-7.661 0,-9.046 0,-51.211 0,-51.211 h -7.328"/>
      <g transform="scale(0.999942,1.00006)" id="g396">
        <path id="path398" style="fill:none;stroke:#ffffff;stroke-width:7.99635983;stroke-linecap:butt;stroke-linejoin:miter;stroke-miterlimit:3.8636899;stroke-dasharray:none;stroke-opacity:1" d="m 225.099,455.497 c 0,4.89 0,47.282 0,47.282 v 9.16 c 0,0 -1.266,12.163 12.165,12.163 14.391,0 15.911,-9.191 8.098,-9.191 l -8.559,-0.546 c 0,0 -4.375,-0.129 -4.375,-7.66 0,-9.046 0,-51.208 0,-51.208 z"/>
      </g>
      <path id="path400" style="fill:#ed1c24;fill-opacity:1;fill-rule:nonzero;stroke:none" d="m 225.086,455.832 c 0,4.887 0,47.281 0,47.281 v 9.164 c 0,0 -1.395,12.164 12.164,12.164 14.391,0 15.953,-9.191 8.098,-9.191 l -8.559,-0.547 c 0,0 -4.375,-0.129 -4.375,-7.664 0,-9.043 0,-51.207 0,-51.207 h -7.328"/>
      <path id="path402" style="fill:#ffffff;fill-opacity:1;fill-rule:nonzero;stroke:none" d="m 482.059,455.523 c 0,4.891 0,47.286 0,47.286 v 9.16 c 0,0 1.269,12.164 -12.164,12.164 -14.391,0 -15.997,-9.192 -8.098,-9.192 l 8.558,-0.546 c 0,0 4.375,-0.129 4.375,-7.661 0,-9.046 0,-51.211 0,-51.211 h 7.329"/>
      <g transform="scale(-1.00004,0.999963)" id="g404">
        <path id="path406" style="fill:none;stroke:#ffffff;stroke-width:7.9971199;stroke-linecap:butt;stroke-linejoin:miter;stroke-miterlimit:3.8636899;stroke-dasharray:none;stroke-opacity:1" d="m -482.041,455.54 c 0,4.891 0,47.287 0,47.287 v 9.16 c 0,0 -1.269,12.165 12.164,12.165 14.39,0 15.995,-9.192 8.097,-9.192 l -8.558,-0.547 c 0,0 -4.375,-0.129 -4.375,-7.66 0,-9.047 0,-51.213 0,-51.213 z"/>
      </g>
      <path id="path408" style="fill:#ed1c24;fill-opacity:1;fill-rule:nonzero;stroke:none" d="m 482.059,455.832 c 0,4.887 0,47.281 0,47.281 v 9.164 c 0,0 1.398,12.164 -12.164,12.164 -14.391,0 -15.965,-9.191 -8.098,-9.191 l 8.558,-0.547 c 0,0 4.375,-0.129 4.375,-7.664 0,-9.043 0,-51.207 0,-51.207 h 7.329"/>
      <path id="path410" style="fill:#ffffff;fill-opacity:1;fill-rule:nonzero;stroke:none" d="m 240.199,508.383 h 227.203 c 4.172,0 7.555,-3.301 7.555,-7.371 v -62.629 c 0,-4.071 -3.383,-7.367 -7.555,-7.367 H 240.199 c -4.172,0 -7.554,3.296 -7.554,7.367 v 62.629 c 0,4.07 3.382,7.371 7.554,7.371"/>
      <path id="path412" style="fill:#ed1c24;fill-opacity:1;fill-rule:nonzero;stroke:none" d="m 238.062,436.105 h 231.477 v 67.1875 H 238.062 Z"/>
      <g transform="scale(0.999991,1.00001)" id="g414">
        <path id="path416" style="fill:none;stroke:#ed1c24;stroke-width:0.34586701;stroke-linecap:butt;stroke-linejoin:miter;stroke-miterlimit:3.8636899;stroke-dasharray:none;stroke-opacity:1" d="M 238.065,503.288 H 469.543 V 436.101 H 238.065 Z"/>
      </g>
      <path id="path418" style="fill:#ffffff;fill-opacity:1;fill-rule:evenodd;stroke:none" d="m 262.609,466.738 h 9.301 c 1.856,0 5.692,-1.453 5.692,-5.406 0,-3.484 -2.153,-6.043 -6.684,-6.043 h -8.309 z m 0,15.918 h 7.844 c 2.676,0 5.813,-1.101 5.813,-4.531 0,-3.078 -2.442,-5.691 -5.926,-5.691 h -7.731 z m -8.308,-33.058 h 19.058 c 7.438,0 12.551,3.832 12.551,9.644 0,6.215 -3.254,9.528 -8.367,10.344 v 0.113 c 4.648,1.278 7.031,4.766 7.031,9.414 0,6.508 -5.054,9.239 -10.051,9.239 h -20.222 v -38.754"/>
      <path id="path420" style="fill:#ffffff;fill-opacity:1;fill-rule:evenodd;stroke:none" d="m 293.555,449.598 h 8.133 v 28.879 h -8.133 z m -0.117,33.757 h 8.308 v 5.344 h -8.308 v -5.344"/>
      <path id="path422" style="fill:#ffffff;fill-opacity:1;fill-rule:nonzero;stroke:none" d="m 311.195,449.598 h 8.13281 v 38.7539 H 311.195 Z"/>
      <path id="path424" style="fill:#ffffff;fill-opacity:1;fill-rule:evenodd;stroke:none" d="m 328.836,449.598 h 8.133 v 38.754 h -8.133 z m 8.656,16.152 11.504,-16.152 h 8.715 l -12.086,16.152 10.402,12.727 h -9.121 l -9.414,-12.727"/>
      <path id="path426" style="fill:#ffffff;fill-opacity:1;fill-rule:evenodd;stroke:none" d="m 387.664,456.105 c -3.078,-0.988 -6.219,-1.859 -9.527,-1.859 -5.231,0 -9.242,3.02 -9.242,8.426 v 0.926 h 20.917 v 2.269 c 0,9.352 -6.214,13.305 -14.058,13.305 -10.055,0 -14.992,-6.332 -14.992,-15.164 0,-8.832 5.808,-15.11 15.98,-15.11 4.008,0 7.086,0.407 10.168,1.106 z m -18.769,11.387 c 0.293,3.778 2.675,6.742 6.859,6.742 4.473,0 6.332,-2.617 6.332,-6.742 h -13.191"/>
      <path id="path428" style="fill:#ffffff;fill-opacity:1;fill-rule:nonzero;stroke:none" d="m 404.824,478.477 h -8.133 v -28.879 h 8.133 v 11.156 c 0,8.945 2.793,11.91 8.254,11.91 3.137,0 5.926,-1.687 5.926,-4.707 v -18.359 h 8.133 v 20.218 c 0,7.09 -5.285,9.356 -11.387,9.356 -4.824,0 -8.656,-1.277 -10.809,-5.578 l -0.117,0.117 v 4.766"/>
      <path id="path430" style="fill:#ffffff;fill-opacity:1;fill-rule:nonzero;stroke:none" d="m 445.695,478.477 v 6.91 l -8.136,-1.914 v -4.996 h -4.067 v -5.696 h 4.067 v -16.386 c 0,-5.696 3.023,-7.497 8.601,-7.497 2.383,0 4.473,0.293 6.508,0.872 l 0.93,5.812 c -1.395,-0.352 -2.848,-0.523 -4.301,-0.523 -2.902,0 -3.602,1.976 -3.602,4.879 v 12.843 h 7.325 v 5.696 h -7.325"/>
      <path id="path432" style="fill:#ffffff;fill-opacity:1;fill-rule:nonzero;stroke:none" d="m 311.715,323.348 v 3.535 c 1.64,0.074 2.789,0.183 3.445,0.328 1.047,0.234 1.899,0.695 2.555,1.387 0.449,0.476 0.789,1.109 1.023,1.898 0.133,0.473 0.2,0.824 0.2,1.059 h 4.32 v -26.446 h -5.324 v 18.239 h -6.219"/>
      <path id="path434" style="fill:#ffffff;fill-opacity:1;fill-rule:evenodd;stroke:none" d="m 333.316,329.129 c 1.641,1.762 3.77,2.644 6.383,2.644 4.028,0 6.785,-1.781 8.281,-5.343 0.852,-2.02 1.278,-4.676 1.278,-7.973 0,-3.195 -0.41,-5.867 -1.223,-8.004 -1.555,-4.074 -4.414,-6.113 -8.57,-6.113 -1.985,0 -3.766,0.586 -5.344,1.754 -1.582,1.179 -2.488,2.894 -2.719,5.14 h 5.18 c 0.121,-0.777 0.449,-1.41 0.984,-1.894 0.536,-0.488 1.246,-0.731 2.133,-0.731 1.715,0 2.918,0.95 3.61,2.844 0.379,1.047 0.617,2.574 0.714,4.578 -0.476,-0.593 -0.98,-1.051 -1.515,-1.367 -0.973,-0.582 -2.168,-0.875 -3.594,-0.875 -2.102,0 -3.969,0.723 -5.598,2.172 -1.628,1.457 -2.445,3.555 -2.445,6.293 0,2.832 0.817,5.121 2.445,6.875 z m 8.754,-10.488 c 1.18,0.754 1.77,2.062 1.77,3.921 0,1.497 -0.352,2.68 -1.059,3.555 -0.691,0.879 -1.648,1.317 -2.863,1.317 -0.887,0 -1.645,-0.25 -2.277,-0.75 -1,-0.778 -1.496,-2.098 -1.496,-3.957 0,-1.567 0.316,-2.75 0.945,-3.539 0.644,-0.778 1.633,-1.168 2.957,-1.168 0.715,0 1.391,0.207 2.023,0.621"/>
      <path id="path436" style="fill:#ffffff;fill-opacity:1;fill-rule:evenodd;stroke:none" d="m 360.551,309.758 c 0.679,-0.715 1.613,-1.074 2.808,-1.074 1.192,0 2.121,0.359 2.789,1.074 0.68,0.719 1.02,1.726 1.02,3.027 0,1.352 -0.344,2.371 -1.039,3.067 -0.68,0.703 -1.602,1.054 -2.77,1.058 -1.168,0 -2.097,-0.355 -2.793,-1.058 -0.679,-0.696 -1.019,-1.715 -1.019,-3.067 0,-1.301 0.332,-2.308 1.004,-3.027 z m -5.403,6.711 c 0.684,1.207 1.676,2.109 2.977,2.719 -1.277,0.851 -2.109,1.769 -2.5,2.753 -0.379,0.997 -0.566,1.926 -0.566,2.793 0,1.918 0.726,3.555 2.171,4.903 1.446,1.363 3.489,2.047 6.129,2.047 2.637,0 4.68,-0.684 6.129,-2.047 1.446,-1.348 2.168,-2.985 2.168,-4.903 0,-0.867 -0.195,-1.796 -0.586,-2.793 -0.375,-0.984 -1.203,-1.839 -2.476,-2.57 1.301,-0.73 2.277,-1.695 2.933,-2.902 0.657,-1.203 0.989,-2.547 0.989,-4.028 0,-2.226 -0.828,-4.125 -2.485,-5.691 -1.64,-1.559 -3.937,-2.336 -6.894,-2.336 -2.953,0 -5.192,0.777 -6.711,2.336 -1.52,1.566 -2.278,3.465 -2.278,5.691 0,1.481 0.332,2.825 1,4.028 z m 5.747,5.328 c 0.597,-0.609 1.417,-0.914 2.464,-0.914 1.059,0 1.871,0.305 2.446,0.914 0.582,0.605 0.871,1.391 0.871,2.351 0,1.047 -0.289,1.86 -0.871,2.446 -0.575,0.594 -1.387,0.894 -2.446,0.894 -1.047,0 -1.867,-0.3 -2.464,-0.894 -0.583,-0.586 -0.875,-1.399 -0.875,-2.446 0,-0.96 0.292,-1.746 0.875,-2.351"/>
      <path id="path438" style="fill:#ffffff;fill-opacity:1;fill-rule:evenodd;stroke:none" d="m 396.098,310.797 h -2.993 v -5.688 h -5.085 v 5.688 h -10.469 v 4.543 l 9.719,16.051 h 5.835 v -16.524 h 2.993 z m -8.078,4.07 v 11.414 l -6.622,-11.414 h 6.622"/>
      <path id="path440" style="fill:none;stroke:#1f4fa2;stroke-width:12.21800041;stroke-linecap:butt;stroke-linejoin:miter;stroke-miterlimit:3.8636899;stroke-dasharray:none;stroke-opacity:1" d="M 758.125,279.016 H 3630.65"/>
      <path id="path442" style="fill:#1f4fa2;fill-opacity:1;fill-rule:evenodd;stroke:none" d="m 862.375,242.176 c 0,-3.961 1.395,-7.332 4.184,-10.117 2.785,-2.786 6.156,-4.18 10.113,-4.18 3.961,0 7.332,1.394 10.117,4.18 2.785,2.785 4.18,6.156 4.18,10.117 0,3.957 -1.395,7.328 -4.18,10.113 -2.785,2.789 -6.156,4.18 -10.117,4.18 -3.957,0 -7.328,-1.391 -10.113,-4.18 -2.789,-2.785 -4.184,-6.156 -4.184,-10.113 z m -46.402,0 c 0,-3.961 1.39,-7.332 4.175,-10.117 2.79,-2.786 6.161,-4.18 10.122,-4.18 3.957,0 7.332,1.394 10.117,4.18 2.785,2.785 4.175,6.156 4.175,10.117 0,3.957 -1.39,7.328 -4.175,10.113 -2.785,2.789 -6.16,4.18 -10.117,4.18 -3.961,0 -7.332,-1.391 -10.122,-4.18 -2.785,-2.785 -4.175,-6.156 -4.175,-10.113 z M 848.965,63.1562 c 21.258,0 37.387,5.4961 48.383,16.4922 10.992,11.1407 16.492,29.4686 16.492,54.9846 0,9.531 0.074,18.547 0.219,27.051 0.296,8.648 0.586,16.492 0.879,23.531 0.296,7.183 0.585,13.484 0.882,18.91 0.293,5.43 0.586,9.75 0.879,12.98 -1.906,-0.296 -3.738,-0.589 -5.5,-0.878 -1.758,-0.149 -3.59,-0.223 -5.496,-0.223 -1.613,0 -3.375,0.074 -5.277,0.223 -1.906,0.289 -3.887,0.582 -5.938,0.878 0.582,-10.121 1.024,-20.238 1.317,-30.351 0.293,-9.969 0.441,-20.012 0.441,-30.133 0,-10.262 -0.293,-20.156 -0.879,-29.687 -0.586,-9.383 -2.199,-17.743 -4.84,-25.071 -2.492,-7.3357 -6.23,-13.195 -11.215,-17.5974 -4.988,-4.3984 -11.874,-6.5976 -20.675,-6.5976 -7.184,0 -13.485,0.7343 -18.914,2.1992 -5.422,1.4648 -10.043,4.3984 -13.856,8.8008 -3.664,4.5429 -6.449,10.9218 -8.355,19.129 -1.907,8.215 -2.86,18.988 -2.86,32.332 0,12.609 0.149,24.996 0.442,37.168 0.293,12.316 1.172,25.586 2.64,39.808 -2.933,-0.296 -5.941,-0.589 -9.019,-0.878 -3.078,-0.149 -6.086,-0.223 -9.016,-0.223 -2.933,0 -5.941,0.074 -9.015,0.223 -3.082,0.289 -6.09,0.582 -9.02,0.878 0.293,-3.667 0.516,-9.167 0.66,-16.5 0.145,-7.328 0.219,-16.933 0.219,-28.808 0,-3.957 -0.074,-7.77 -0.219,-11.438 0,-3.664 0,-7.476 0,-11.433 0,-3.961 -0.074,-8.285 -0.219,-12.977 0,-4.547 0,-9.75 0,-15.613 0,-10.41 1.684,-19.281 5.055,-26.6133 3.524,-7.1836 8.285,-13.1211 14.297,-17.8125 6.012,-4.5469 13.047,-7.7696 21.113,-9.6719 8.211,-2.0547 17.008,-3.0821 26.395,-3.0821"/>
      <path id="path444" style="fill:#1f4fa2;fill-opacity:1;fill-rule:nonzero;stroke:none" d="m 975.859,155.301 0.879,16.496 c -2.933,-0.293 -5.718,-0.586 -8.355,-0.879 -2.492,-0.148 -5.059,-0.219 -7.699,-0.219 -2.637,0 -5.278,0.071 -7.914,0.219 -2.497,0.293 -5.063,0.586 -7.7,0.879 0.731,-7.918 1.172,-15.832 1.321,-23.75 0.293,-7.77 0.437,-16.129 0.437,-25.074 v -8.793 c 0,-8.946 -0.144,-17.3792 -0.437,-25.2933 -0.149,-7.9179 -0.59,-15.5429 -1.321,-22.8711 2.055,0.293 4.469,0.4375 7.258,0.4375 2.785,0 5.863,0 9.234,0 3.376,0 6.45,0 9.243,0 2.925,0 5.347,-0.1445 7.254,-0.4375 -0.731,7.3282 -1.247,14.9532 -1.539,22.8711 -0.149,7.9141 -0.223,16.3473 -0.223,25.2933 v 8.793 c 0,10.117 1.543,18.035 4.621,23.754 3.078,5.718 7.918,8.574 14.516,8.574 5.716,0 10.116,-2.196 13.196,-6.594 3.23,-4.254 4.84,-11 4.84,-20.234 0,-13.344 -0.15,-25.219 -0.44,-35.6292 -0.3,-10.2657 -0.96,-19.2071 -1.98,-26.8282 1.9,0.293 4.33,0.4375 7.25,0.4375 2.94,0 6.02,0 9.24,0 3.23,0 6.31,0 9.24,0 2.93,0 5.35,-0.1445 7.26,-0.4375 -0.29,5.1289 -0.59,10.4063 -0.88,15.8321 -0.15,5.5703 -0.23,10.6992 -0.23,15.3945 0,5.7148 0.16,11.4338 0.45,17.1528 0.29,5.718 0.44,12.316 0.44,19.796 0,14.223 -3.01,24.485 -9.02,30.789 -5.87,6.45 -14.29,9.676 -25.29,9.676 -7.04,0 -13.346,-1.683 -18.916,-5.058 -5.426,-3.371 -10.192,-8.137 -14.297,-14.297 h -0.438"/>
      <path id="path446" style="fill:#1f4fa2;fill-opacity:1;fill-rule:evenodd;stroke:none" d="m 1068.89,213.367 c 0,-4.84 1.68,-8.949 5.06,-12.316 3.37,-3.375 7.48,-5.063 12.31,-5.063 4.84,0 8.95,1.688 12.32,5.063 3.37,3.367 5.06,7.476 5.06,12.316 0,4.832 -1.69,8.942 -5.06,12.313 -3.37,3.371 -7.48,5.058 -12.32,5.058 -4.83,0 -8.94,-1.687 -12.31,-5.058 -3.38,-3.371 -5.06,-7.481 -5.06,-12.313 z m 2.64,-90.394 v -8.793 c 0,-8.946 -0.15,-17.3792 -0.44,-25.2933 -0.15,-7.9179 -0.59,-15.5429 -1.32,-22.8711 2.05,0.293 4.47,0.4375 7.25,0.4375 2.79,0 5.87,0 9.24,0 3.38,0 6.45,0 9.24,0 2.93,0 5.35,-0.1445 7.26,-0.4375 -0.74,7.3282 -1.25,14.9532 -1.55,22.8711 -0.14,7.9141 -0.21,16.3473 -0.21,25.2933 v 8.793 c 0,8.945 0.07,17.304 0.21,25.074 0.3,7.918 0.81,15.832 1.55,23.75 -4.11,-0.731 -9.61,-1.098 -16.5,-1.098 -3.37,0 -6.45,0.071 -9.24,0.219 -2.78,0.293 -5.2,0.586 -7.25,0.879 0.73,-7.918 1.17,-15.832 1.32,-23.75 0.29,-7.77 0.44,-16.129 0.44,-25.074"/>
      <path id="path448" style="fill:#1f4fa2;fill-opacity:1;fill-rule:nonzero;stroke:none" d="m 1174.9,94.8242 h -0.44 c -4.26,12.8988 -8.44,25.7308 -12.54,38.4848 -3.96,12.757 -7.92,25.586 -11.88,38.488 -2.78,-0.293 -5.57,-0.586 -8.35,-0.879 -2.64,-0.148 -5.35,-0.219 -8.14,-0.219 -2.78,0 -5.64,0.071 -8.58,0.219 -2.78,0.293 -5.72,0.586 -8.79,0.879 2.05,-5.422 4.61,-12.391 7.69,-20.895 3.08,-8.504 6.38,-17.664 9.9,-27.488 3.52,-9.676 7.04,-19.57 10.55,-29.6913 3.67,-10.1172 6.97,-19.3516 9.9,-27.7071 2.05,0.293 4.03,0.4375 5.94,0.4375 1.91,0 3.89,0 5.94,0 2.05,0 4.03,0 5.94,0 1.91,0 3.88,-0.1445 5.93,-0.4375 3.38,10.9922 6.97,21.625 10.78,31.8867 3.96,10.4097 7.77,20.0897 11.44,29.0317 3.81,9.089 7.4,17.371 10.77,24.847 3.38,7.625 6.24,14.297 8.58,20.016 -1.76,-0.293 -3.37,-0.586 -4.84,-0.879 -1.46,-0.148 -2.93,-0.219 -4.4,-0.219 -1.46,0 -2.93,0.071 -4.4,0.219 -1.46,0.293 -3,0.586 -4.61,0.879 -4.25,-12.902 -8.58,-25.731 -12.98,-38.488 -4.25,-12.754 -8.72,-25.586 -13.41,-38.4848"/>
      <path id="path450" style="fill:#1f4fa2;fill-opacity:1;fill-rule:evenodd;stroke:none" d="m 1260.01,118.578 h 63.12 c 0.14,0.438 0.22,1.317 0.22,2.637 v 4.617 c 0,15.539 -3.89,27.566 -11.66,36.066 -7.62,8.504 -18.69,12.758 -33.21,12.758 -7.33,0 -14.15,-1.172 -20.45,-3.519 -6.16,-2.344 -11.51,-5.864 -16.05,-10.555 -4.55,-4.691 -8.14,-10.559 -10.78,-17.594 -2.49,-7.039 -3.74,-15.324 -3.74,-24.855 0,-9.672 1.39,-18.031 4.18,-25.0705 2.93,-6.8906 6.82,-12.6094 11.65,-17.1523 4.99,-4.5469 10.71,-7.7696 17.16,-9.6719 6.45,-2.0547 13.27,-3.0821 20.45,-3.0821 8.36,0 15.1,0.8829 20.24,2.6407 5.13,1.6093 9.53,3.8086 13.19,6.5937 l 4.84,12.3164 -2.64,1.9805 c -7.92,-6.5977 -16.94,-9.8984 -27.05,-9.8984 -4.98,0 -9.39,1.0273 -13.2,3.0781 -3.66,2.2031 -6.74,5.1328 -9.23,8.8008 -2.35,3.8125 -4.11,8.2812 -5.28,13.41 -1.18,5.137 -1.76,10.633 -1.76,16.5 z m 33.87,9.895 h -33.87 c 0.15,4.254 0.51,8.504 1.1,12.757 0.73,4.395 1.76,8.282 3.08,11.653 1.32,3.519 3.08,6.379 5.28,8.578 2.19,2.199 4.91,3.301 8.13,3.301 5.72,0 9.76,-3.301 12.1,-9.899 2.49,-6.597 3.89,-15.394 4.18,-26.39"/>
      <path id="path452" style="fill:#1f4fa2;fill-opacity:1;fill-rule:nonzero;stroke:none" d="m 1373.05,144.965 0.66,26.832 c -2.49,-0.293 -5.06,-0.586 -7.69,-0.879 -2.5,-0.148 -4.99,-0.219 -7.48,-0.219 -2.5,0 -5.06,0.071 -7.7,0.219 -2.5,0.293 -4.99,0.586 -7.48,0.879 0.73,-7.918 1.18,-15.832 1.32,-23.75 0.29,-7.77 0.44,-16.129 0.44,-25.074 v -8.793 c 0,-8.946 -0.15,-17.3792 -0.44,-25.2933 -0.14,-7.9179 -0.59,-15.5429 -1.32,-22.8711 2.05,0.293 4.47,0.4375 7.26,0.4375 2.78,0 5.86,0 9.24,0 3.37,0 6.44,0 9.23,0 2.93,0 5.36,-0.1445 7.26,-0.4375 -0.73,7.3282 -1.24,14.9532 -1.54,22.8711 -0.15,7.9141 -0.22,16.3473 -0.22,25.2933 v 8.793 c 0,5.867 1.91,10.922 5.72,15.175 3.81,4.399 9.02,6.598 15.61,6.598 2.35,0 4.4,-0.293 6.16,-0.879 1.91,-0.59 3.59,-1.32 5.06,-2.199 l 1.98,1.758 c -0.15,1.176 -0.22,2.418 -0.22,3.738 0,1.32 0,2.566 0,3.738 v 7.039 c 0,3.371 0.07,6.305 0.22,8.801 0.29,2.492 0.66,4.836 1.1,7.035 -0.59,0 -1.17,0 -1.76,0 -0.44,0.149 -1.03,0.219 -1.76,0.219 -7.48,0 -13.93,-2.418 -19.35,-7.254 -5.43,-4.695 -10.05,-12.101 -13.86,-22.215 l -0.44,0.438"/>
      <path id="path454" style="fill:#1f4fa2;fill-opacity:1;fill-rule:nonzero;stroke:none" d="m 1430.89,93.0625 h -5.5 c -0.44,-7.0352 -1.54,-14.0742 -3.3,-21.1133 3.09,-2.0508 7.26,-4.0312 12.54,-5.9336 5.28,-1.9062 11.21,-2.8594 17.81,-2.8594 5.57,0 10.85,0.6602 15.84,1.9805 5.13,1.3164 9.67,3.4414 13.63,6.375 3.96,3.0781 7.11,6.8906 9.46,11.4375 2.34,4.6914 3.52,10.2617 3.52,16.711 0,6.4528 -1.32,11.7308 -3.96,15.8358 -2.49,4.106 -5.64,7.402 -9.46,9.899 -3.81,2.64 -7.99,4.765 -12.53,6.378 -4.55,1.61 -8.73,3.223 -12.54,4.832 -3.81,1.618 -7.03,3.45 -9.68,5.504 -2.49,2.196 -3.74,5.055 -3.74,8.579 0,3.808 1.47,6.886 4.41,9.234 3.07,2.344 6.81,3.519 11.21,3.519 3.52,0 6.52,-0.66 9.02,-1.98 2.49,-1.172 4.61,-2.711 6.38,-4.617 1.75,-1.906 3.15,-3.961 4.18,-6.156 1.02,-2.055 1.75,-3.961 2.2,-5.723 h 6.15 c 0.44,3.226 1.1,6.527 1.98,9.898 0.88,3.371 1.98,6.524 3.3,9.457 -4.99,3.371 -9.9,5.938 -14.74,7.7 -4.69,1.757 -10.11,2.636 -16.27,2.636 -4.55,0 -9.16,-0.73 -13.85,-2.199 -4.55,-1.32 -8.66,-3.445 -12.32,-6.379 -3.67,-2.785 -6.67,-6.449 -9.02,-10.992 -2.2,-4.398 -3.29,-9.68 -3.29,-15.836 0,-6.453 1.24,-11.73 3.73,-15.836 2.49,-4.105 5.57,-7.551 9.24,-10.336 3.81,-2.64 7.92,-4.84 12.31,-6.598 4.4,-1.757 8.44,-3.523 12.1,-5.281 3.82,-1.6092 6.96,-3.4451 9.46,-5.4959 2.49,-2.0547 3.73,-4.7656 3.73,-8.1367 0,-3.082 -1.39,-5.9414 -4.17,-8.5781 -2.79,-2.6367 -6.75,-3.961 -11.88,-3.961 -3.81,0 -7.18,0.5157 -10.12,1.543 -2.78,1.0274 -5.2,2.3438 -7.26,3.9609 -2.05,1.7579 -3.81,3.6602 -5.27,5.7149 -1.32,2.1992 -2.42,4.4727 -3.3,6.8164"/>
      <path id="path456" style="fill:#1f4fa2;fill-opacity:1;fill-rule:evenodd;stroke:none" d="m 1514.46,213.367 c 0,-4.84 1.69,-8.949 5.06,-12.316 3.37,-3.375 7.48,-5.063 12.32,-5.063 4.84,0 8.94,1.688 12.31,5.063 3.37,3.367 5.06,7.476 5.06,12.316 0,4.832 -1.69,8.942 -5.06,12.313 -3.37,3.371 -7.47,5.058 -12.31,5.058 -4.84,0 -8.95,-1.687 -12.32,-5.058 -3.37,-3.371 -5.06,-7.481 -5.06,-12.313 z m 2.64,-90.394 v -8.793 c 0,-8.946 -0.15,-17.3792 -0.44,-25.2933 -0.15,-7.9179 -0.59,-15.5429 -1.32,-22.8711 2.05,0.293 4.47,0.4375 7.26,0.4375 2.79,0 5.86,0 9.24,0 3.37,0 6.45,0 9.23,0 2.93,0 5.35,-0.1445 7.26,-0.4375 -0.73,7.3282 -1.25,14.9532 -1.54,22.8711 -0.15,7.9141 -0.22,16.3473 -0.22,25.2933 v 8.793 c 0,8.945 0.07,17.304 0.22,25.074 0.29,7.918 0.81,15.832 1.54,23.75 -4.11,-0.731 -9.6,-1.098 -16.49,-1.098 -3.38,0 -6.45,0.071 -9.24,0.219 -2.79,0.293 -5.21,0.586 -7.26,0.879 0.73,-7.918 1.17,-15.832 1.32,-23.75 0.29,-7.77 0.44,-16.129 0.44,-25.074"/>
      <path id="path458" style="fill:#1f4fa2;fill-opacity:1;fill-rule:nonzero;stroke:none" d="m 1631.9,170.699 -19.35,-0.441 c 0,3.226 0,6.601 0,10.117 0.15,3.664 0.29,7.184 0.44,10.559 0.29,3.515 0.51,6.812 0.66,9.894 0.29,3.223 0.58,6.012 0.88,8.356 l -2.2,1.543 c -4.99,-2.497 -9.97,-4.915 -14.95,-7.262 -4.99,-2.195 -10.05,-4.32 -15.18,-6.375 0.29,-5.57 0.51,-10.336 0.66,-14.297 0.14,-3.961 0.22,-8.211 0.22,-12.754 l -15.4,0.66 c 0.44,-2.199 0.66,-4.179 0.66,-5.937 0,-1.907 -0.22,-3.742 -0.66,-5.5 l 15.4,0.218 c 0,-4.691 -0.08,-9.82 -0.22,-15.394 -0.15,-5.426 -0.37,-10.996 -0.66,-16.715 -0.15,-5.57 -0.3,-11.07 -0.44,-16.492 -0.15,-5.277 -0.22,-10.043 -0.22,-14.297 0,-22.2851 9.31,-33.4258 27.93,-33.4258 4.25,0 8.58,0.5118 12.98,1.5391 4.39,1.0274 8.06,2.1992 10.99,3.5156 v 9.0196 c -1.32,-0.7344 -2.64,-1.3203 -3.96,-1.7617 -1.32,-0.293 -3.37,-0.4415 -6.16,-0.4415 -2.49,0 -4.54,0.4415 -6.15,1.3243 -1.62,0.8789 -2.86,2.5625 -3.74,5.0586 -0.88,2.4921 -1.54,6.082 -1.98,10.7734 -0.29,4.6914 -0.44,10.8474 -0.44,18.4724 0,2.934 0,6.524 0,10.782 0.15,4.25 0.22,8.644 0.22,13.195 0.15,4.543 0.29,9.015 0.44,13.414 0.29,4.398 0.58,8.285 0.88,11.656 l 19.35,-0.441 c -0.44,1.758 -0.66,3.593 -0.66,5.5 0,1.758 0.22,3.738 0.66,5.937"/>
      <path id="path460" style="fill:#1f4fa2;fill-opacity:1;fill-rule:evenodd;stroke:none" d="m 1675.45,118.578 h 63.11 c 0.15,0.438 0.23,1.317 0.23,2.637 v 4.617 c 0,15.539 -3.89,27.566 -11.66,36.066 -7.63,8.504 -18.7,12.758 -33.21,12.758 -7.33,0 -14.15,-1.172 -20.46,-3.519 -6.15,-2.344 -11.5,-5.864 -16.05,-10.555 -4.54,-4.691 -8.14,-10.559 -10.78,-17.594 -2.49,-7.039 -3.74,-15.324 -3.74,-24.855 0,-9.672 1.4,-18.031 4.18,-25.0705 2.94,-6.8906 6.82,-12.6094 11.66,-17.1523 4.98,-4.5469 10.7,-7.7696 17.16,-9.6719 6.45,-2.0547 13.27,-3.0821 20.45,-3.0821 8.36,0 15.1,0.8829 20.23,2.6407 5.13,1.6093 9.53,3.8086 13.2,6.5937 l 4.84,12.3164 -2.65,1.9805 c -7.91,-6.5977 -16.93,-9.8984 -27.05,-9.8984 -4.98,0 -9.38,1.0273 -13.19,3.0781 -3.67,2.2031 -6.75,5.1328 -9.24,8.8008 -2.34,3.8125 -4.1,8.2812 -5.27,13.41 -1.18,5.137 -1.76,10.633 -1.76,16.5 z m 33.86,9.895 h -33.86 c 0.14,4.254 0.51,8.504 1.1,12.757 0.73,4.395 1.75,8.282 3.07,11.653 1.33,3.519 3.08,6.379 5.29,8.578 2.19,2.199 4.9,3.301 8.13,3.301 5.72,0 9.75,-3.301 12.1,-9.899 2.49,-6.597 3.88,-15.394 4.17,-26.39"/>
      <path id="path462" style="fill:#1f4fa2;fill-opacity:1;fill-rule:evenodd;stroke:none" d="m 1864.37,175.758 c -3.82,-8.801 -7.41,-17.524 -10.78,-26.172 -3.37,-8.504 -6.67,-17.231 -9.9,-26.172 h 40.25 c -3.23,8.941 -6.45,17.668 -9.68,26.172 -3.08,8.648 -6.38,17.371 -9.89,26.172 z m 77.85,-109.7424 c -3.52,0.293 -6.89,0.4375 -10.11,0.4375 -3.09,0 -6.16,0 -9.25,0 -3.07,0 -6.23,0 -9.45,0 -3.08,0 -6.16,-0.1445 -9.24,-0.4375 -2.34,7.1797 -4.76,14.5156 -7.26,21.9922 -2.49,7.4727 -5.12,14.9492 -7.91,22.4302 -4.7,0.148 -9.39,0.218 -14.08,0.218 -4.69,0.149 -9.38,0.223 -14.08,0.223 -3.8,0 -7.62,-0.074 -11.43,-0.223 -3.81,0 -7.62,-0.07 -11.44,-0.218 -2.93,-7.481 -5.64,-14.9575 -8.13,-22.4302 -2.5,-7.4766 -4.77,-14.8125 -6.82,-21.9922 -1.76,0.293 -3.52,0.4375 -5.28,0.4375 -1.61,0 -3.3,0 -5.06,0 -1.75,0 -3.52,0 -5.27,0 -1.77,0 -3.67,-0.1445 -5.73,-0.4375 1.77,3.8086 4.11,9.086 7.04,15.8321 2.94,6.7461 6.16,14.3671 9.68,22.8753 3.52,8.504 7.26,17.593 11.22,27.265 4.1,9.828 8.13,19.723 12.09,29.696 4.11,9.968 8.07,19.793 11.88,29.464 3.96,9.68 7.55,18.696 10.78,27.051 1.46,-0.289 2.86,-0.582 4.17,-0.879 1.32,-0.144 2.71,-0.215 4.18,-0.215 1.47,0 2.86,0.071 4.18,0.215 1.32,0.297 2.71,0.59 4.18,0.879 4.69,-12.457 9.68,-25.801 14.96,-40.023 5.42,-14.223 10.84,-28.227 16.27,-42.008 5.42,-13.633 10.7,-26.609 15.83,-38.9258 5.13,-12.3164 9.82,-22.7266 14.08,-31.2266"/>
      <path id="path464" style="fill:#1f4fa2;fill-opacity:1;fill-rule:evenodd;stroke:none" d="m 1985.11,116.375 c 0,8.359 0.58,15.324 1.75,20.895 1.32,5.57 2.94,9.968 4.84,13.195 1.91,3.371 4.03,5.715 6.38,7.035 2.35,1.324 4.69,1.98 7.04,1.98 5.72,0 10.41,-3.148 14.08,-9.457 3.66,-6.156 5.49,-16.054 5.49,-29.687 0,-15.836 -1.98,-27.1993 -5.94,-34.0899 -3.81,-6.7461 -8.72,-10.1172 -14.73,-10.1172 -2.49,0 -4.91,0.6602 -7.26,1.9805 -2.2,1.4648 -4.18,3.7383 -5.94,6.8164 -1.76,3.2265 -3.15,7.4062 -4.18,12.5351 -1.02,5.1331 -1.53,11.4371 -1.53,18.9141 z m 69.05,25.074 v 14.293 c 0,14.371 0.15,27.567 0.44,39.59 0.29,12.02 0.73,24.191 1.32,36.508 -1.91,-0.297 -4.33,-0.586 -7.26,-0.883 -2.93,-0.145 -6.01,-0.219 -9.23,-0.219 -3.23,0 -6.31,0.074 -9.24,0.219 -2.93,0.297 -5.35,0.586 -7.26,0.883 0.59,-12.465 1.03,-24.563 1.32,-36.289 0.29,-11.582 0.44,-23.973 0.44,-37.168 h -0.44 c -2.49,4.691 -6.38,8.574 -11.65,11.656 -5.14,3.078 -11,4.617 -17.6,4.617 -5.86,0 -11.43,-1.394 -16.71,-4.179 -5.13,-2.786 -9.61,-6.668 -13.42,-11.653 -3.81,-4.84 -6.82,-10.633 -9.02,-17.375 -2.19,-6.601 -3.3,-13.855 -3.3,-21.777 0,-7.914 0.81,-15.317 2.42,-22.2111 1.62,-6.8867 4.11,-12.9023 7.48,-18.0312 3.37,-5.1328 7.7,-9.168 12.98,-12.0977 5.28,-2.7812 11.65,-4.1758 19.13,-4.1758 8.51,0 15.18,1.7618 20.01,5.2735 4.84,3.668 8.65,8.8008 11.44,15.3984 l 0.44,-0.4414 c 0,-0.4375 -0.07,-1.539 -0.22,-3.2969 -0.15,-1.7617 -0.37,-3.6679 -0.66,-5.7187 -0.15,-2.0547 -0.29,-3.8867 -0.44,-5.5 -0.15,-1.6094 -0.29,-2.5625 -0.44,-2.8555 1.47,0.293 3.52,0.4375 6.16,0.4375 2.78,0 5.64,0 8.58,0 3.22,0 6.3,0 9.23,0 2.93,0 5.35,-0.1445 7.26,-0.4375 -0.59,11.8711 -1.03,23.8203 -1.32,35.8474 -0.29,12.02 -0.44,25.219 -0.44,39.586"/>
      <path id="path466" style="fill:#1f4fa2;fill-opacity:1;fill-rule:evenodd;stroke:none" d="m 2132.46,99.4414 c 0,-7.1836 -1.54,-12.6055 -4.62,-16.2734 -2.93,-3.668 -6.82,-5.5 -11.66,-5.5 -3.81,0 -6.89,1.3945 -9.24,4.1797 -2.2,2.9335 -3.3,7.1093 -3.3,12.5351 0,5.5742 0.89,9.8242 2.65,12.7582 1.9,2.929 4.25,5.203 7.03,6.816 2.93,1.762 6.09,3.156 9.46,4.176 3.52,1.176 6.82,2.64 9.9,4.402 0,-2.496 -0.08,-5.422 -0.22,-8.797 0,-3.226 0,-7.992 0,-14.2966 z m -52.12,59.8206 2.85,-13.196 h 1.54 c 1.03,1.614 2.49,3.079 4.4,4.399 2.05,1.465 4.25,2.785 6.6,3.957 2.49,1.172 5.06,2.055 7.7,2.64 2.63,0.735 5.2,1.098 7.69,1.098 6.6,0 11.73,-1.906 15.4,-5.715 3.81,-3.664 5.71,-8.14 5.71,-13.418 0,-1.906 -0.29,-3.515 -0.87,-4.836 -0.44,-1.324 -1.54,-2.566 -3.31,-3.742 -1.75,-1.023 -4.47,-2.125 -8.13,-3.297 -3.52,-1.023 -8.36,-2.273 -14.51,-3.738 -4.99,-1.172 -9.46,-2.641 -13.42,-4.398 -3.96,-1.614 -7.4,-3.668 -10.34,-6.157 -2.78,-2.496 -4.99,-5.5 -6.6,-9.015 -1.46,-3.524 -2.2,-7.6995 -2.2,-12.5393 0,-3.5195 0.59,-7.0391 1.76,-10.5586 1.18,-3.3711 3.01,-6.4492 5.5,-9.2344 2.64,-2.6406 5.94,-4.6914 9.9,-6.1562 3.96,-1.4649 8.72,-2.1993 14.29,-2.1993 6.75,0 12.32,1.3946 16.72,4.1758 4.54,2.7891 8.5,6.5235 11.87,11.2188 1.76,-4.9883 4.33,-8.7969 7.7,-11.4375 3.37,-2.6367 7.77,-3.9571 13.2,-3.9571 3.37,0 6.52,0.4415 9.46,1.3204 2.93,0.8789 6.52,2.1953 10.77,3.9531 v 5.2812 c -2.2,0 -4.18,0.1446 -5.94,0.4375 -1.61,0.2969 -2.93,0.9532 -3.96,1.9805 -1.02,1.0273 -1.83,2.4922 -2.41,4.4023 -0.44,2.0469 -0.67,4.836 -0.67,8.3555 0,7.9141 0.08,15.8363 0.23,23.7503 0.29,8.062 0.44,16.789 0.44,26.172 0,6.449 -1.03,11.949 -3.09,16.492 -1.9,4.547 -4.69,8.215 -8.35,11 -3.52,2.933 -7.77,5.054 -12.76,6.375 -4.83,1.32 -10.19,1.98 -16.05,1.98 -7.04,0 -14.15,-1.32 -21.34,-3.957 -7.03,-2.64 -13.63,-6.453 -19.78,-11.437"/>
      <path id="path468" style="fill:#1f4fa2;fill-opacity:1;fill-rule:nonzero;stroke:none" d="m 2234.06,102.742 c -4.69,11.582 -9.24,23.09 -13.63,34.528 -4.25,11.437 -8.51,22.945 -12.76,34.527 -2.78,-0.293 -5.5,-0.586 -8.14,-0.879 -2.64,-0.148 -5.35,-0.219 -8.14,-0.219 -2.78,0 -5.57,0.071 -8.35,0.219 -2.64,0.293 -5.35,0.586 -8.14,0.879 1.76,-4.395 4.33,-10.777 7.7,-19.133 3.52,-8.359 7.33,-17.594 11.44,-27.711 4.25,-10.117 8.5,-20.453 12.75,-31.0077 4.4,-10.5586 8.36,-20.0156 11.88,-28.3711 -4.4,-9.6719 -8.95,-19.2031 -13.64,-28.5859 -4.69,-9.5313 -9.46,-19.1367 -14.29,-28.81642 1.61,0.29687 3.15,0.58984 4.62,0.88671 1.46,0.14453 3,0.21485 4.61,0.21485 1.62,0 3.15,-0.07032 4.62,-0.21485 1.46,-0.29687 3.01,-0.58984 4.62,-0.88671 3.37,9.09372 7.25,19.21092 11.65,30.35152 4.55,11.1446 9.17,22.3594 13.86,33.6446 4.84,11.4375 9.6,22.7265 14.3,33.871 4.69,11.141 8.94,21.262 12.75,30.352 3.96,9.234 7.26,16.933 9.9,23.089 2.78,6.305 4.54,10.411 5.28,12.317 -1.76,-0.293 -3.38,-0.586 -4.84,-0.879 -1.47,-0.148 -2.93,-0.219 -4.4,-0.219 -1.47,0 -2.93,0.071 -4.4,0.219 -1.32,0.293 -2.79,0.586 -4.4,0.879 -1.9,-6.012 -3.81,-11.731 -5.71,-17.156 -1.76,-5.422 -3.67,-10.848 -5.72,-16.27 -1.91,-5.43 -3.96,-11.07 -6.16,-16.933 -2.2,-5.719 -4.62,-11.954 -7.26,-18.696"/>
      <path id="path470" style="fill:#1f4fa2;fill-opacity:1;fill-rule:nonzero;stroke:none" d="m 2296.74,155.742 v -14.293 c 0,-14.367 -0.15,-27.566 -0.44,-39.586 -0.29,-12.0271 -0.73,-23.9763 -1.32,-35.8474 1.91,0.293 4.33,0.4375 7.26,0.4375 2.93,0 6.01,0 9.24,0 3.22,0 6.3,0 9.23,0 2.93,0 5.35,-0.1445 7.26,-0.4375 -0.59,11.8711 -1.03,23.8203 -1.32,35.8474 -0.29,12.02 -0.44,25.219 -0.44,39.586 v 14.293 c 0,14.371 0.15,27.567 0.44,39.59 0.29,12.02 0.73,24.191 1.32,36.508 -1.91,-0.297 -4.33,-0.586 -7.26,-0.883 -2.93,-0.145 -6.01,-0.219 -9.23,-0.219 -3.23,0 -6.31,0.074 -9.24,0.219 -2.93,0.297 -5.35,0.586 -7.26,0.883 0.59,-12.317 1.03,-24.488 1.32,-36.508 0.29,-12.023 0.44,-25.219 0.44,-39.59"/>
      <path id="path472" style="fill:#1f4fa2;fill-opacity:1;fill-rule:evenodd;stroke:none" d="m 2406.93,99.4414 c 0,-7.1836 -1.54,-12.6055 -4.63,-16.2734 -2.92,-3.668 -6.81,-5.5 -11.65,-5.5 -3.81,0 -6.89,1.3945 -9.24,4.1797 -2.2,2.9335 -3.3,7.1093 -3.3,12.5351 0,5.5742 0.89,9.8242 2.64,12.7582 1.91,2.929 4.25,5.203 7.04,6.816 2.93,1.762 6.09,3.156 9.46,4.176 3.52,1.176 6.82,2.64 9.89,4.402 0,-2.496 -0.07,-5.422 -0.21,-8.797 0,-3.226 0,-7.992 0,-14.2966 z m -52.13,59.8206 2.86,-13.196 h 1.54 c 1.03,1.614 2.49,3.079 4.4,4.399 2.05,1.465 4.25,2.785 6.6,3.957 2.49,1.172 5.05,2.055 7.69,2.64 2.64,0.735 5.21,1.098 7.7,1.098 6.6,0 11.73,-1.906 15.39,-5.715 3.82,-3.664 5.72,-8.14 5.72,-13.418 0,-1.906 -0.29,-3.515 -0.88,-4.836 -0.43,-1.324 -1.53,-2.566 -3.3,-3.742 -1.75,-1.023 -4.47,-2.125 -8.13,-3.297 -3.52,-1.023 -8.36,-2.273 -14.51,-3.738 -4.99,-1.172 -9.46,-2.641 -13.42,-4.398 -3.96,-1.614 -7.41,-3.668 -10.34,-6.157 -2.78,-2.496 -4.98,-5.5 -6.6,-9.015 -1.47,-3.524 -2.2,-7.6995 -2.2,-12.5393 0,-3.5195 0.59,-7.0391 1.77,-10.5586 1.17,-3.3711 3,-6.4492 5.49,-9.2344 2.64,-2.6406 5.94,-4.6914 9.9,-6.1562 3.96,-1.4649 8.72,-2.1993 14.29,-2.1993 6.75,0 12.32,1.3946 16.72,4.1758 4.54,2.7891 8.5,6.5235 11.88,11.2188 1.75,-4.9883 4.32,-8.7969 7.69,-11.4375 3.37,-2.6367 7.77,-3.9571 13.2,-3.9571 3.37,0 6.52,0.4415 9.45,1.3204 2.93,0.8789 6.53,2.1953 10.78,3.9531 v 5.2812 c -2.2,0 -4.18,0.1446 -5.94,0.4375 -1.61,0.2969 -2.93,0.9532 -3.96,1.9805 -1.02,1.0273 -1.83,2.4922 -2.41,4.4023 -0.45,2.0469 -0.67,4.836 -0.67,8.3555 0,7.9141 0.08,15.8363 0.22,23.7503 0.3,8.062 0.45,16.789 0.45,26.172 0,6.449 -1.03,11.949 -3.09,16.492 -1.9,4.547 -4.69,8.215 -8.35,11 -3.52,2.933 -7.78,5.054 -12.76,6.375 -4.84,1.32 -10.19,1.98 -16.05,1.98 -7.04,0 -14.15,-1.32 -21.34,-3.957 -7.03,-2.64 -13.63,-6.453 -19.79,-11.437"/>
      <path id="path474" style="fill:#1f4fa2;fill-opacity:1;fill-rule:nonzero;stroke:none" d="m 2494.89,144.965 0.66,26.832 c -2.49,-0.293 -5.05,-0.586 -7.69,-0.879 -2.5,-0.148 -4.99,-0.219 -7.48,-0.219 -2.49,0 -5.06,0.071 -7.7,0.219 -2.49,0.293 -4.98,0.586 -7.47,0.879 0.73,-7.918 1.17,-15.832 1.31,-23.75 0.3,-7.77 0.44,-16.129 0.44,-25.074 v -8.793 c 0,-8.946 -0.14,-17.3792 -0.44,-25.2933 -0.14,-7.9179 -0.58,-15.5429 -1.31,-22.8711 2.04,0.293 4.47,0.4375 7.25,0.4375 2.79,0 5.87,0 9.24,0 3.37,0 6.45,0 9.23,0 2.94,0 5.36,-0.1445 7.27,-0.4375 -0.74,7.3282 -1.25,14.9532 -1.55,22.8711 -0.14,7.9141 -0.22,16.3473 -0.22,25.2933 v 8.793 c 0,5.867 1.91,10.922 5.72,15.175 3.81,4.399 9.02,6.598 15.62,6.598 2.34,0 4.39,-0.293 6.16,-0.879 1.9,-0.59 3.59,-1.32 5.05,-2.199 l 1.98,1.758 c -0.14,1.176 -0.22,2.418 -0.22,3.738 0,1.32 0,2.566 0,3.738 v 7.039 c 0,3.371 0.08,6.305 0.22,8.801 0.29,2.492 0.66,4.836 1.1,7.035 -0.58,0 -1.17,0 -1.76,0 -0.44,0.149 -1.03,0.219 -1.76,0.219 -7.47,0 -13.93,-2.418 -19.35,-7.254 -5.42,-4.695 -10.05,-12.101 -13.85,-22.215 l -0.45,0.438"/>
      <path id="path476" style="fill:#1f4fa2;fill-opacity:1;fill-rule:nonzero;stroke:none" d="m 2553.39,122.973 v -8.793 c 0,-8.946 -0.14,-17.3792 -0.44,-25.2933 -0.15,-7.9179 -0.58,-15.5429 -1.31,-22.8711 2.04,0.293 4.47,0.4375 7.25,0.4375 2.79,0 5.86,0 9.24,0 3.37,0 6.45,0 9.24,0 2.93,0 5.35,-0.1445 7.25,-0.4375 -0.73,7.3282 -1.24,14.9532 -1.54,22.8711 -0.14,7.9141 -0.22,16.3473 -0.22,25.2933 v 8.793 c 0,8.945 0.08,17.304 0.22,25.074 0.3,7.918 0.81,15.832 1.54,23.75 -4.1,-0.731 -9.6,-1.098 -16.49,-1.098 -3.38,0 -6.45,0.071 -9.24,0.219 -2.78,0.293 -5.21,0.586 -7.25,0.879 0.73,-7.918 1.16,-15.832 1.31,-23.75 0.3,-7.77 0.44,-16.129 0.44,-25.074"/>
      <path id="path478" style="fill:#1f4fa2;fill-opacity:1;fill-rule:nonzero;stroke:none" d="m 2641.14,155.301 0.88,16.496 c -2.93,-0.293 -5.72,-0.586 -8.35,-0.879 -2.49,-0.148 -5.06,-0.219 -7.7,-0.219 -2.64,0 -5.28,0.071 -7.92,0.219 -2.49,0.293 -5.06,0.586 -7.69,0.879 0.73,-7.918 1.17,-15.832 1.32,-23.75 0.29,-7.77 0.43,-16.129 0.43,-25.074 v -8.793 c 0,-8.946 -0.14,-17.3792 -0.43,-25.2933 -0.15,-7.9179 -0.59,-15.5429 -1.32,-22.8711 2.05,0.293 4.46,0.4375 7.25,0.4375 2.79,0 5.87,0 9.24,0 3.37,0 6.45,0 9.24,0 2.93,0 5.35,-0.1445 7.25,-0.4375 -0.73,7.3282 -1.24,14.9532 -1.54,22.8711 -0.14,7.9141 -0.21,16.3473 -0.21,25.2933 v 8.793 c 0,10.117 1.53,18.035 4.61,23.754 3.08,5.718 7.92,8.574 14.52,8.574 5.72,0 10.11,-2.196 13.19,-6.594 3.23,-4.254 4.84,-11 4.84,-20.234 0,-13.344 -0.14,-25.219 -0.44,-35.6292 -0.29,-10.2657 -0.95,-19.2071 -1.98,-26.8282 1.91,0.293 4.33,0.4375 7.26,0.4375 2.93,0 6.01,0 9.24,0 3.22,0 6.3,0 9.23,0 2.94,0 5.35,-0.1445 7.26,-0.4375 -0.29,5.1289 -0.59,10.4063 -0.88,15.8321 -0.15,5.5703 -0.22,10.6992 -0.22,15.3945 0,5.7148 0.15,11.4338 0.44,17.1528 0.3,5.718 0.45,12.316 0.45,19.796 0,14.223 -3.01,24.485 -9.02,30.789 -5.87,6.45 -14.3,9.676 -25.3,9.676 -7.03,0 -13.34,-1.683 -18.91,-5.058 -5.43,-3.371 -10.19,-8.137 -14.29,-14.297 h -0.45"/>
      <path id="path480" style="fill:#1f4fa2;fill-opacity:1;fill-rule:evenodd;stroke:none" d="m 2785.86,99.4414 c 0,-7.1836 -1.54,-12.6055 -4.63,-16.2734 -2.93,-3.668 -6.81,-5.5 -11.65,-5.5 -3.81,0 -6.89,1.3945 -9.24,4.1797 -2.2,2.9335 -3.3,7.1093 -3.3,12.5351 0,5.5742 0.89,9.8242 2.65,12.7582 1.9,2.929 4.25,5.203 7.03,6.816 2.94,1.762 6.08,3.156 9.46,4.176 3.52,1.176 6.82,2.64 9.89,4.402 0,-2.496 -0.07,-5.422 -0.21,-8.797 0,-3.226 0,-7.992 0,-14.2966 z m -52.13,59.8206 2.86,-13.196 h 1.54 c 1.03,1.614 2.49,3.079 4.4,4.399 2.06,1.465 4.25,2.785 6.59,3.957 2.5,1.172 5.06,2.055 7.71,2.64 2.63,0.735 5.2,1.098 7.69,1.098 6.6,0 11.73,-1.906 15.4,-5.715 3.81,-3.664 5.72,-8.14 5.72,-13.418 0,-1.906 -0.3,-3.515 -0.88,-4.836 -0.44,-1.324 -1.55,-2.566 -3.3,-3.742 -1.76,-1.023 -4.48,-2.125 -8.14,-3.297 -3.52,-1.023 -8.36,-2.273 -14.51,-3.738 -4.99,-1.172 -9.46,-2.641 -13.42,-4.398 -3.96,-1.614 -7.4,-3.668 -10.34,-6.157 -2.78,-2.496 -4.98,-5.5 -6.59,-9.015 -1.47,-3.524 -2.21,-7.6995 -2.21,-12.5393 0,-3.5195 0.59,-7.0391 1.77,-10.5586 1.17,-3.3711 3,-6.4492 5.5,-9.2344 2.63,-2.6406 5.93,-4.6914 9.89,-6.1562 3.96,-1.4649 8.72,-2.1993 14.3,-2.1993 6.74,0 12.31,1.3946 16.71,4.1758 4.54,2.7891 8.51,6.5235 11.88,11.2188 1.75,-4.9883 4.32,-8.7969 7.69,-11.4375 3.37,-2.6367 7.77,-3.9571 13.2,-3.9571 3.37,0 6.52,0.4415 9.46,1.3204 2.92,0.8789 6.52,2.1953 10.77,3.9531 v 5.2812 c -2.19,0 -4.17,0.1446 -5.94,0.4375 -1.6,0.2969 -2.93,0.9532 -3.95,1.9805 -1.03,1.0273 -1.83,2.4922 -2.42,4.4023 -0.44,2.0469 -0.66,4.836 -0.66,8.3555 0,7.9141 0.07,15.8363 0.22,23.7503 0.29,8.062 0.44,16.789 0.44,26.172 0,6.449 -1.03,11.949 -3.08,16.492 -1.91,4.547 -4.69,8.215 -8.36,11 -3.52,2.933 -7.77,5.054 -12.76,6.375 -4.84,1.32 -10.19,1.98 -16.05,1.98 -7.04,0 -14.15,-1.32 -21.33,-3.957 -7.04,-2.64 -13.64,-6.453 -19.8,-11.437"/>
      <path id="path482" style="fill:#1f4fa2;fill-opacity:1;fill-rule:evenodd;stroke:none" d="m 2980.93,107.797 c 0,-4.84 -0.66,-9.09 -1.98,-12.754 -1.32,-3.6641 -3.07,-6.8164 -5.28,-9.4571 -2.19,-2.4921 -4.76,-4.3984 -7.69,-5.7187 -2.93,-1.3164 -6.02,-1.9805 -9.24,-1.9805 -2.49,0 -4.62,0 -6.38,0 -1.76,0.1485 -3.66,0.2969 -5.72,0.4414 0,1.9063 -0.07,4.3242 -0.21,7.2578 0,2.9336 0,6.1563 0,9.6758 0,3.5195 -0.08,7.1133 -0.23,10.7773 0,3.664 0,7.258 0,10.777 0,4.547 0,8.43 0,11.657 0.15,3.371 0.23,6.597 0.23,9.675 1.31,0 2.7,0 4.17,0 1.47,0.149 3.23,0.223 5.28,0.223 8.8,0 15.47,-2.566 20.01,-7.699 4.7,-4.984 7.04,-12.61 7.04,-22.875 z m -1.54,71.035 c 0,-4.687 -0.73,-8.793 -2.2,-12.312 -1.46,-3.52 -3.37,-6.454 -5.71,-8.797 -2.35,-2.2 -5.06,-3.887 -8.14,-5.059 -2.94,-1.172 -5.94,-1.762 -9.02,-1.762 h -9.89 c 0,3.813 -0.08,7.481 -0.23,10.996 0,3.668 0,7.481 0,11.438 0,3.812 0.08,8.504 0.23,14.074 0.14,5.574 0.36,11.07 0.65,16.5 1.47,0.293 2.79,0.438 3.96,0.438 1.32,0.144 3.6,0.218 6.82,0.218 4.4,0 8.07,-0.73 11,-2.199 2.93,-1.316 5.35,-3.152 7.25,-5.5 1.91,-2.195 3.23,-4.91 3.96,-8.133 0.88,-3.082 1.32,-6.379 1.32,-9.902 z m -67.74,-22.652 v -29.907 c 0,-12.168 -0.14,-23.019 -0.44,-32.5503 -0.29,-9.3829 -0.73,-18.6211 -1.32,-27.7071 2.5,0.293 5.8,0.4375 9.9,0.4375 4.25,0 8.36,0 12.32,0 5.57,0 10.85,-0.0703 15.83,-0.2148 5.13,-0.1485 10.63,-0.2227 16.5,-0.2227 6.6,0 12.97,0.6563 19.13,1.9766 6.16,1.4648 11.59,3.957 16.27,7.4766 4.84,3.5195 8.66,8.0624 11.44,13.6367 2.93,5.5703 4.4,12.3165 4.4,20.2345 0,6.598 -1.47,12.168 -4.4,16.715 -2.78,4.691 -6.23,8.5 -10.33,11.433 -4.11,2.93 -8.43,5.059 -12.98,6.379 -4.55,1.465 -8.51,2.27 -11.88,2.418 v 0.442 c 3.37,0.585 7.11,1.687 11.22,3.296 4.25,1.618 8.14,3.813 11.65,6.598 3.67,2.934 6.75,6.524 9.24,10.781 2.5,4.395 3.74,9.598 3.74,15.614 0,6.011 -1.1,11.14 -3.3,15.394 -2.05,4.399 -5.06,7.914 -9.01,10.555 -3.96,2.785 -8.65,4.84 -14.08,6.16 -5.43,1.316 -11.44,1.98 -18.03,1.98 -6.31,0 -12.91,-0.222 -19.8,-0.664 -6.89,-0.289 -13.49,-0.437 -19.79,-0.437 -3.66,0 -6.96,0.074 -9.9,0.223 -2.93,0.289 -5.64,0.582 -8.14,0.878 0.59,-9.531 1.03,-19.062 1.32,-28.593 0.3,-9.383 0.44,-20.157 0.44,-32.332"/>
      <path id="path484" style="fill:#1f4fa2;fill-opacity:1;fill-rule:evenodd;stroke:none" d="m 3039.65,213.367 c 0,-4.84 1.69,-8.949 5.06,-12.316 3.37,-3.375 7.48,-5.063 12.31,-5.063 4.84,0 8.95,1.688 12.32,5.063 3.37,3.367 5.06,7.476 5.06,12.316 0,4.832 -1.69,8.942 -5.06,12.313 -3.37,3.371 -7.48,5.058 -12.32,5.058 -4.83,0 -8.94,-1.687 -12.31,-5.058 -3.37,-3.371 -5.06,-7.481 -5.06,-12.313 z m 2.64,-90.394 v -8.793 c 0,-8.946 -0.15,-17.3792 -0.44,-25.2933 -0.15,-7.9179 -0.59,-15.5429 -1.32,-22.8711 2.05,0.293 4.47,0.4375 7.26,0.4375 2.78,0 5.86,0 9.23,0 3.37,0 6.46,0 9.24,0 2.93,0 5.35,-0.1445 7.26,-0.4375 -0.73,7.3282 -1.25,14.9532 -1.54,22.8711 -0.14,7.9141 -0.22,16.3473 -0.22,25.2933 v 8.793 c 0,8.945 0.08,17.304 0.22,25.074 0.29,7.918 0.81,15.832 1.54,23.75 -4.11,-0.731 -9.61,-1.098 -16.5,-1.098 -3.37,0 -6.45,0.071 -9.23,0.219 -2.79,0.293 -5.21,0.586 -7.26,0.879 0.73,-7.918 1.17,-15.832 1.32,-23.75 0.29,-7.77 0.44,-16.129 0.44,-25.074"/>
      <path id="path486" style="fill:#1f4fa2;fill-opacity:1;fill-rule:nonzero;stroke:none" d="m 3103.43,155.742 v -14.293 c 0,-14.367 -0.15,-27.566 -0.44,-39.586 -0.29,-12.0271 -0.73,-23.9763 -1.32,-35.8474 1.91,0.293 4.33,0.4375 7.26,0.4375 2.93,0 6.01,0 9.23,0 3.23,0 6.31,0 9.24,0 2.93,0 5.35,-0.1445 7.26,-0.4375 -0.59,11.8711 -1.03,23.8203 -1.32,35.8474 -0.29,12.02 -0.44,25.219 -0.44,39.586 v 14.293 c 0,14.371 0.15,27.567 0.44,39.59 0.29,12.02 0.73,24.191 1.32,36.508 -1.91,-0.297 -4.33,-0.586 -7.26,-0.883 -2.93,-0.145 -6.01,-0.219 -9.24,-0.219 -3.22,0 -6.3,0.074 -9.23,0.219 -2.93,0.297 -5.35,0.586 -7.26,0.883 0.59,-12.317 1.03,-24.488 1.32,-36.508 0.29,-12.023 0.44,-25.219 0.44,-39.59"/>
      <path id="path488" style="fill:#1f4fa2;fill-opacity:1;fill-rule:evenodd;stroke:none" d="m 3202.39,165.641 c 3.97,0 7.26,-2.051 9.9,-6.161 2.64,-3.957 3.96,-10.921 3.96,-20.894 0,-10.113 -1.17,-17.297 -3.52,-21.551 -2.34,-4.25 -5.93,-6.379 -10.77,-6.379 -1.76,0 -3.52,0.442 -5.28,1.321 -1.61,0.882 -3.15,2.347 -4.62,4.398 -1.32,2.055 -2.42,4.691 -3.3,7.918 -0.88,3.371 -1.32,7.48 -1.32,12.312 0,19.36 4.99,29.036 14.95,29.036 z m 33.43,-1.762 19.36,-0.879 c -0.15,0.879 -0.29,1.762 -0.44,2.641 0,0.879 0,1.761 0,2.64 0,0.879 0,1.758 0,2.637 0.15,0.879 0.29,1.758 0.44,2.641 -3.96,0 -7.91,-0.075 -11.88,-0.223 -3.96,0 -7.77,0 -11.43,0 -2.35,0 -4.55,0 -6.6,0 -1.91,0.148 -3.81,0.293 -5.72,0.441 -2.64,0.149 -5.35,0.293 -8.14,0.442 -2.79,0.293 -5.49,0.437 -8.14,0.437 -6.88,0 -13.19,-0.804 -18.91,-2.418 -5.72,-1.613 -10.63,-3.957 -14.74,-7.039 -4.1,-2.933 -7.32,-6.597 -9.67,-10.996 -2.2,-4.398 -3.3,-9.383 -3.3,-14.953 0,-9.383 2.49,-17.008 7.48,-22.875 4.84,-5.719 11.73,-9.672 20.67,-11.875 v -0.441 c -6.16,-1.61 -11.14,-4.6918 -14.95,-9.2348 -3.67,-4.5469 -5.5,-9.2383 -5.5,-14.0781 0,-4.1016 1.1,-7.5508 3.3,-10.3359 2.35,-2.6368 5.42,-4.6133 9.24,-5.9336 v -0.4375 c -6.6,-2.4922 -11.88,-5.8672 -15.84,-10.1172 -3.81,-4.4024 -5.72,-10.1172 -5.72,-17.1563 0,-8.7968 3.81,-15.832 11.44,-21.1133 7.77,-5.4257 18.54,-8.13668 32.33,-8.13668 6.45,0 13.12,0.8086 20.01,2.42188 6.89,1.6094 13.12,4.3242 18.69,8.1367 5.72,3.6641 10.34,8.5039 13.86,14.5117 3.67,5.8672 5.5,13.1993 5.5,21.9961 0,9.8203 -2.93,16.9297 -8.8,21.3282 -5.72,4.5429 -14.74,6.8906 -27.05,7.039 l -16.27,0.2188 c -5.87,0.1445 -10.2,1.2461 -12.98,3.2968 -2.64,2.0547 -3.96,4.8399 -3.96,8.3594 0,2.0508 0.59,3.8828 1.76,5.4958 1.32,1.618 2.86,2.422 4.62,2.422 1.91,0 3.59,-0.074 5.06,-0.222 1.61,0 3.23,0 4.84,0 6.44,0 12.24,0.882 17.37,2.64 5.28,1.758 9.75,4.25 13.41,7.477 3.82,3.226 6.75,7.035 8.8,11.437 2.06,4.543 3.08,9.531 3.08,14.953 0,5.575 -1.1,10.34 -3.3,14.297 -2.05,4.106 -4.91,7.477 -8.58,10.117 z m -4.17,-121.1759 c 0,-3.5195 -0.66,-6.8164 -1.98,-9.8984 -1.17,-3.2227 -3.01,-6.0078 -5.5,-8.3555 -2.35,-2.4922 -5.21,-4.3984 -8.58,-5.7187 -3.37,-1.4649 -7.18,-2.1993 -11.43,-2.1993 -3.96,0 -7.7,0.5899 -11.22,1.7618 -3.37,1.0273 -6.38,2.5664 -9.02,4.6172 -2.63,2.0546 -4.76,4.6914 -6.38,7.9179 -1.46,3.0781 -2.2,6.7422 -2.2,10.9961 0,5.1328 0.96,9.3867 2.86,12.7578 2.06,3.3711 3.96,5.4961 5.72,6.375 2.94,1.4688 8.21,2.1992 15.84,2.1992 4.98,0 9.45,-0.2187 13.42,-0.6562 3.95,-0.5898 7.25,-1.6172 9.89,-3.082 2.79,-1.4649 4.91,-3.5157 6.38,-6.1563 1.46,-2.789 2.2,-6.3047 2.2,-10.5586"/>
      <path id="path490" style="fill:#1f4fa2;fill-opacity:1;fill-rule:evenodd;stroke:none" d="m 3271.89,213.367 c 0,-4.84 1.69,-8.949 5.06,-12.316 3.37,-3.375 7.48,-5.063 12.32,-5.063 4.84,0 8.94,1.688 12.31,5.063 3.38,3.367 5.06,7.476 5.06,12.316 0,4.832 -1.68,8.942 -5.06,12.313 -3.37,3.371 -7.47,5.058 -12.31,5.058 -4.84,0 -8.95,-1.687 -12.32,-5.058 -3.37,-3.371 -5.06,-7.481 -5.06,-12.313 z m 2.64,-90.394 v -8.793 c 0,-8.946 -0.14,-17.3792 -0.44,-25.2933 -0.14,-7.9179 -0.59,-15.5429 -1.32,-22.8711 2.05,0.293 4.48,0.4375 7.26,0.4375 2.79,0 5.86,0 9.24,0 3.37,0 6.45,0 9.24,0 2.93,0 5.35,-0.1445 7.25,-0.4375 -0.73,7.3282 -1.24,14.9532 -1.54,22.8711 -0.14,7.9141 -0.22,16.3473 -0.22,25.2933 v 8.793 c 0,8.945 0.08,17.304 0.22,25.074 0.3,7.918 0.81,15.832 1.54,23.75 -4.1,-0.731 -9.6,-1.098 -16.49,-1.098 -3.38,0 -6.45,0.071 -9.24,0.219 -2.78,0.293 -5.21,0.586 -7.26,0.879 0.73,-7.918 1.18,-15.832 1.32,-23.75 0.3,-7.77 0.44,-16.129 0.44,-25.074"/>
    </g>
  </g>
</svg>
